<?xml version="1.0" encoding="utf-8"?>
<!-- Generator: Adobe Illustrator 22.0.1, SVG Export Plug-In . SVG Version: 6.00 Build 0)  -->
<svg version="1.1" id="Layer_1" xmlns="http://www.w3.org/2000/svg" xmlns:xlink="http://www.w3.org/1999/xlink" x="0px" y="0px"
	 viewBox="0 0 92.2 55.2" style="enable-background:new 0 0 92.2 55.2;" xml:space="preserve">
<path d="M87.6,9.2h-83C2.1,9.2,0,7.1,0,4.6S2.1,0,4.6,0h83c2.5,0,4.6,2.1,4.6,4.6S90.1,9.2,87.6,9.2z M18.5,23h55.3
	c2.5,0,4.6,2.1,4.6,4.6s-2.1,4.6-4.6,4.6H18.5c-2.5,0-4.6-2.1-4.6-4.6C13.8,25.1,15.9,23,18.5,23z M32.3,46h27.6
	c2.5,0,4.6,2.1,4.6,4.6s-2.1,4.6-4.6,4.6H32.3c-2.5,0-4.6-2.1-4.6-4.6S29.7,46,32.3,46z"/>
</svg>
