<svg xmlns="http://www.w3.org/2000/svg" viewBox="0 0 74.4 74.4"><style>.st0{fill:#d81e1e}.st1{fill:#77777a;stroke:#77777a;stroke-miterlimit:10}.st2{fill:#FFF}.st3{fill:none;stroke:#77777a;stroke-miterlimit:10}</style><circle class="st0" cx="37.5" cy="37.2" r="36.2" id="Layer_2"/><g id="Layer_1"><path class="st1" d="M37.5 1C17.5 1 1.2 17.2 1.2 37.2s16.2 36.2 36.2 36.2 36.2-16.2 36.2-36.2S57.5 1 37.5 1zm13.4 32.1c0 8.1-6 14.7-13.4 14.7s-13.4-6.6-13.4-14.7v-3.6c0-8.1 6-14.7 13.4-14.7s13.4 6.6 13.4 14.7v3.6z"/><path class="st2" d="M37.5 14.8c-7.4 0-13.4 6.6-13.4 14.7v3.6c0 8.1 6 14.7 13.4 14.7s13.4-6.6 13.4-14.7v-3.6c0-8.1-6-14.7-13.4-14.7zM68.9 71.6L67 59.9v-.1c-.6-2.4-2-4.1-4.9-5.8H62l-11.1-5.8c-.7-.3-1.4-.2-2 .3-2.3 2.1-6.2 4.6-11.5 4.6s-9.2-2.5-11.5-4.6c-.5-.5-1.3-.6-2-.3L12.8 54h-.1c-2.8 1.7-4.3 3.4-4.9 5.8v.1L5.9 71.6c-.1.5.1 1 .4 1.4.3.4.8.6 1.3.6H67c.5 0 1-.2 1.3-.6.6-.4.7-.9.6-1.4z"/><circle class="st3" cx="37.2" cy="37.2" r="36.7"/></g></svg>