<svg xmlns="http://www.w3.org/2000/svg" viewBox="0 0 100 80.445" id="blog-icon"><path d="M37.615 0C16.903 0 .112 11.264.112 25.166c0 7.494 4.885 14.218 12.628 18.828-1.648 3.054-4.905 6.95-11.64 12.234-1.1.862-2.474 2.11 1.974 1.22 7.448-1.49 15.396-5.287 21.455-8.692 4.074 1.02 8.48 1.577 13.086 1.577 20.71 0 37.502-11.264 37.502-25.166S58.326 0 37.615 0z"/><path d="M99.19 63.12c-5.78-4.535-6.606-7.096-6.888-8.957 4.033-2.922 6.5-6.83 6.5-11.128 0-7.997-8.532-14.648-19.818-16.094C78.05 38.38 68.12 47.854 53.95 52.01c4.364 4.463 11.883 7.412 20.432 7.412 3.68 0 7.168-.55 10.3-1.528 3.296 2.113 8.937 5.353 13.956 6.355 2.297.46 1.12-.686.552-1.13z"/></svg>