<?xml version="1.0" encoding="utf-8"?>
<!-- Generator: Adobe Illustrator 21.1.0, SVG Export Plug-In . SVG Version: 6.00 Build 0)  -->
<svg version="1.1" id="Layer_1" xmlns="http://www.w3.org/2000/svg" xmlns:xlink="http://www.w3.org/1999/xlink" x="0px" y="0px"
	 viewBox="0 0 145.2 43.7" style="enable-background:new 0 0 145.2 43.7;" xml:space="preserve">
<style type="text/css">
	.st0{fill:#77777A;}
	.st1{clip-path:url(#SVGID_2_);}
	.st2{clip-path:url(#SVGID_2_);fill:url(#SVGID_5_);}
</style>
<g id="Logo">
	<path class="st0" d="M76.1,13.8c0,9.4-5.9,14.4-13,14.4c-7.4,0-12.6-5.6-12.6-13.9C50.5,5.7,56,0,63.5,0C71.2,0,76.1,5.7,76.1,13.8
		L76.1,13.8z M54.4,14.3c0,5.8,3.2,11.1,8.9,11.1c5.7,0,9-5.2,9-11.4c0-5.4-2.9-11.1-8.9-11.1C57.4,2.9,54.4,8.3,54.4,14.3
		L54.4,14.3z"/>
	<path class="st0" d="M104.4,15.8C104.2,12,103.9,7.4,104,4h-0.1c-1,3.2-2.1,6.6-3.5,10.4l-4.9,13.3h-2.7l-4.5-13
		c-1.3-3.9-2.5-7.4-3.2-10.6h-0.1c-0.1,3.4-0.3,8-0.5,12.1l-0.7,11.7h-3.4l2-27.3h4.6l4.8,13.2c1.2,3.4,2.1,6.4,2.8,9.2h0.1
		c0.7-2.8,1.7-5.8,3-9.2l5-13.2h4.6l1.7,27.3h-3.5L104.4,15.8L104.4,15.8z"/>
	<path class="st0" d="M114.2,27.8V0.4h3.9l9,13.8c2.1,3.2,3.7,6.1,5,8.9l0.1,0c-0.3-3.6-0.4-7-0.4-11.2V0.4h3.4v27.3h-3.7l-8.9-13.9
		c-2-3-3.8-6.2-5.2-9.1l-0.1,0c0.2,3.4,0.3,6.7,0.3,11.3v11.7H114.2L114.2,27.8z"/>
	<polygon class="st0" points="145.2,0.4 145.2,27.8 141.5,27.8 141.5,0.4 145.2,0.4 	"/>
	<g>
		<defs>
			<path id="SVGID_1_" d="M24.6,23.9c0.1,0.5,0.1,0.9,0.1,1.4c0,0.5,0.1,0.9,0.3,1.4c0.5,0.9,0.7,1.8,0.9,2.8c0.2,1,0.1,2,0,3.1
				c-0.3,1.4-0.7,2.7-1.5,4c-0.9,1.3-2,2.2-3.3,3.1c-1.7,1-3.6,1.8-5.4,2.6c-0.3,0.1-0.6,0.2-0.9,0.4c0.1,0,0.1,0.1,0.2,0.1
				c1.7,0.6,3.4,1,5.2,1.2h0.7c1.6-0.4,3.2-1,4.8-1.6c1.6-0.7,3.1-1.4,4.4-2.5c2.5-2,3.7-4.6,3.9-7.7c0-0.1,0-0.2-0.1-0.3
				c-3.1-2.7-6.2-5.5-9.3-8.2c0,0-0.1-0.1-0.1-0.1C24.4,23.5,24.5,23.7,24.6,23.9 M41.3,9.8c-1.3,0.1-2.5,0.3-3.7,0.7
				c-3.3,0.9-5.7,2.9-7.1,5.9c-0.1,0.1,0,0.2,0.1,0.3c1.1,0.9,2.1,1.7,3.2,2.6c0.4,0.3,0.6,0.7,0.6,1.3c0,3.6,0,7.2,0,10.8
				c0,0.1,0,0.3,0.1,0.4c0.4,1.2,0.6,2.5,0.5,3.8c-0.1,1.6-0.6,3.1-1.4,4.5c-0.3,0.5-0.6,1-1,1.5c0.1,0,0.2-0.1,0.2-0.1
				c2.5-1.3,4.7-2.9,6.5-5c3.7-4.1,5.6-8.9,5.7-14.4c0-0.1,0-0.2,0-0.4v-0.1c0-1.4-0.2-2.7-0.4-4.1c-0.5-2.7-1.6-5.2-3-7.5
				C41.5,9.9,41.5,9.8,41.3,9.8C41.3,9.8,41.3,9.8,41.3,9.8 M35.1,3.6c-0.8,0.2-1.6,0.4-2.3,0.7c-2.3,0.8-4.5,1.6-6.5,2.9
				C24.8,8,23.5,9,22.5,10.4c-1,1.4-1.6,2.9-1.9,4.6c-0.2,1-0.2,2,0,3c0.1,0.7,0.3,1.4,0.4,2.1c0.1,0.3,0.1,0.6,0.2,0.9
				c0.1,0.2,0.2,0.4,0.2,0.7c0,1.3,0,2.5,0,3.8c0,2.2,0,4.4-0.1,6.6c0,0.1-0.1,0.2-0.1,0.3c-0.1,0-0.2-0.1-0.3-0.1
				c-1.7-1.4-3.3-2.7-5-4.1c-0.1,0-0.1-0.1-0.2-0.1c-0.2,2.4-1.3,4.5-2.9,6.2c-1.7,1.8-3.9,2.5-6.3,2.9c0,0,0,0.1,0.1,0.1
				c1.2,1.2,2.4,2.2,3.8,3c0.1,0,0.2,0,0.2,0c0.5-0.1,1-0.3,1.5-0.4c2.5-0.8,5-1.8,7.2-3.1c1.4-0.9,2.7-1.9,3.7-3.3
				c1-1.4,1.6-3,1.8-4.6c0.1-0.9,0.1-1.8,0-2.7c-0.1-0.8-0.3-1.6-0.5-2.4c-0.1-0.3-0.1-0.5-0.2-0.8c-0.1-0.2-0.2-0.5-0.2-0.7
				c0-1.2,0-2.5,0-3.7c0-2.1,0-4.2,0.1-6.3c0-0.2,0-0.3,0-0.5c0-0.2,0.2-0.2,0.3-0.1c0,0,0.1,0.1,0.1,0.1c1.7,1.4,3.3,2.8,5,4.1
				c0,0,0.1,0.1,0.2,0.1c0-0.3,0-0.6,0.1-0.9c0.6-2.8,2-5,4.4-6.6c1.2-0.8,2.6-1.2,4.1-1.5c0.3-0.1,0.6-0.1,0.9-0.2
				c0,0,0-0.1-0.1-0.1c-1.1-1.2-2.3-2.2-3.6-3.1C35.3,3.6,35.3,3.6,35.1,3.6C35.2,3.6,35.1,3.6,35.1,3.6 M14,1.3c0,0-0.1,0-0.1,0.1
				c-3.3,1.3-6.1,3.3-8.4,5.9c-3.2,3.6-5,7.8-5.4,12.4c0,0-0.1,0.9-0.1,2.1c0,1.2,0.1,2.1,0.1,2.1c0.1,0.6,0.2,1.2,0.3,1.8
				c0.6,3,1.7,5.8,3.5,8.3c0.1,0.1,0.1,0.1,0.3,0.1c1.4-0.1,2.7-0.3,4-0.7c3.1-1,5.4-2.9,6.8-5.8c0.1-0.1,0-0.2-0.1-0.3
				c-1.1-0.9-2.2-1.8-3.3-2.7C11.2,24.4,11,24,11,23.6c0-3.6,0-7.2,0-10.9c0-0.1,0-0.3-0.1-0.4c-0.4-1.1-0.6-2.1-0.6-3.3
				c0-0.9,0.2-1.8,0.4-2.7c0.5-1.8,1.3-3.3,2.7-4.6C13.7,1.7,13.9,1.5,14,1.3C14.1,1.3,14,1.3,14,1.3C14,1.3,14,1.3,14,1.3
				 M25.5,0.1c-1.1,0.3-2.3,0.6-3.4,1c-1.8,0.6-3.5,1.3-5.1,2.3c-1.7,1-3.2,2.3-4.2,4.1c-0.8,1.4-1.2,2.8-1.3,4.4
				c0,0.4,0.1,0.6,0.4,0.9c2,1.7,3.9,3.4,5.9,5.2c1.1,1,2.2,2,3.3,2.9c0-0.1-0.1-0.2-0.2-0.4c0-0.1-0.1-0.2-0.1-0.3
				c-0.1-0.6-0.1-1.2-0.2-1.8c0-0.3-0.1-0.6-0.2-0.9c-0.5-0.9-0.8-1.8-1-2.8c-0.2-1.1-0.1-2.1,0-3.2c0.3-1.6,0.8-3.1,1.8-4.4
				c0.8-1.1,1.9-1.9,3-2.6c1.7-1,3.5-1.8,5.3-2.5c0.5-0.2,1-0.4,1.6-0.6c-0.1,0-0.1-0.1-0.2-0.1c-1.5-0.6-3-1-4.5-1.3
				c-0.2,0-0.3,0-0.5,0C25.8,0,25.7,0,25.5,0.1"/>
		</defs>
		<clipPath id="SVGID_2_">
			<use xlink:href="#SVGID_1_"  style="overflow:visible;"/>
		</clipPath>
		<g class="st1">
			<defs>
				<rect id="SVGID_3_" x="0.1" width="45" height="43.7"/>
			</defs>
			<clipPath id="SVGID_4_">
				<use xlink:href="#SVGID_3_"  style="display:none;overflow:visible;"/>
			</clipPath>
			<g style="clip-path:url(#SVGID_4_);">
				
					<image style="overflow:visible;" width="100" height="95" xlink:href="50AE9D7A617DAB63.jpg"  transform="matrix(0.4837 0 0 -0.48 -1.142 44.871)">
				</image>
			</g>
		</g>
		
			<radialGradient id="SVGID_5_" cx="21.8008" cy="22.1744" r="22.8696" gradientTransform="matrix(0.9852 0 0 0.975 1.053 0.1818)" gradientUnits="userSpaceOnUse">
			<stop  offset="0" style="stop-color:#57C9E8"/>
			<stop  offset="0.1621" style="stop-color:#55C5E6"/>
			<stop  offset="0.3257" style="stop-color:#4EB9E0"/>
			<stop  offset="0.4899" style="stop-color:#42A4D6"/>
			<stop  offset="0.6548" style="stop-color:#3288C9"/>
			<stop  offset="0.8201" style="stop-color:#1C63B8"/>
			<stop  offset="0.9836" style="stop-color:#0337A3"/>
			<stop  offset="1" style="stop-color:#0033A0"/>
		</radialGradient>
		<ellipse class="st2" cx="22.5" cy="21.8" rx="22.5" ry="22.3"/>
	</g>
	<path id="International" class="st0" d="M54.4,31.3v12.1h0.9V31.3H54.4L54.4,31.3z M58.5,43.5h0.9v-5.4c0-0.3,0.1-0.6,0.1-0.8
		c0.4-1.1,1.4-2,2.7-2c1.8,0,2.5,1.4,2.5,3v5.1h0.9v-5.2c0-3.2-2.2-3.6-3.1-3.6c-1.4,0-2.6,0.8-3,1.7h0l-0.1-1.5h-0.8
		c0.1,0.7,0.1,1.3,0.1,2.1V43.5L58.5,43.5z M68.7,33.3v1.6h-1.5v0.7h1.5V41c0,0.9,0.1,1.6,0.6,2.1c0.3,0.4,0.9,0.6,1.5,0.6
		c0.5,0,0.9-0.1,1.2-0.2l-0.1-0.6c-0.2,0.1-0.6,0.1-1,0.1c-0.9,0-1.3-0.7-1.3-1.8v-5.6h2.5v-0.7h-2.5v-1.9L68.7,33.3L68.7,33.3z
		 M80.6,39.1c0-0.2,0-0.3,0-0.5c0-1.2-0.6-3.9-3.4-3.9c-2.3,0-4,1.8-4,4.7c0,2.5,1.6,4.3,4.1,4.3c1.5,0,2.5-0.4,2.8-0.6l-0.2-0.7
		c-0.5,0.2-1.2,0.5-2.5,0.5c-1.8,0-3.4-1.1-3.4-3.9H80.6L80.6,39.1z M74.2,38.4c0.2-1.3,1-3,2.9-3c2.1,0,2.7,1.8,2.6,3H74.2
		L74.2,38.4z M82.9,43.5h0.9v-4.8c0-0.3,0-0.6,0.1-0.8c0.2-1.4,1.1-2.4,2.3-2.4c0.2,0,0.3,0,0.4,0v-0.8c-0.1,0-0.2,0-0.4,0
		c-1.2,0-2.1,0.8-2.5,1.9h-0.1l0-1.7h-0.8c0.1,0.8,0.1,1.7,0.1,2.6V43.5L82.9,43.5z M88.5,43.5h0.9v-5.4c0-0.3,0.1-0.6,0.1-0.8
		c0.4-1.1,1.4-2,2.7-2c1.8,0,2.5,1.4,2.5,3v5.1h0.9v-5.2c0-3.2-2.2-3.6-3.1-3.6c-1.4,0-2.6,0.8-3,1.7h0l-0.1-1.5h-0.8
		c0.1,0.7,0.1,1.3,0.1,2.1V43.5L88.5,43.5z M103.8,38c0-1.5-0.5-3.4-3.1-3.4c-0.8,0-1.8,0.2-2.6,0.7l0.3,0.6
		c0.6-0.5,1.5-0.6,2.2-0.6c2.1,0,2.3,1.7,2.3,2.5v0.2c-3.6,0-5.4,1.2-5.4,3.2c0,1.2,0.8,2.4,2.6,2.4c1.4,0,2.4-0.8,2.8-1.4h0
		l0.1,1.2h0.8c-0.1-0.7-0.1-1.4-0.1-2.1V38L103.8,38z M103,40.7c0,0.1,0,0.3-0.1,0.5c-0.3,0.8-1.1,1.7-2.6,1.7
		c-0.9,0-1.8-0.6-1.8-1.8c0-2.1,2.5-2.4,4.5-2.3V40.7L103,40.7z M107,33.3v1.6h-1.5v0.7h1.5V41c0,0.9,0.1,1.6,0.6,2.1
		c0.3,0.4,0.9,0.6,1.5,0.6c0.5,0,0.9-0.1,1.2-0.2l-0.1-0.6c-0.2,0.1-0.6,0.1-1,0.1c-0.9,0-1.3-0.7-1.3-1.8v-5.6h2.5v-0.7h-2.5v-1.9
		L107,33.3L107,33.3z M113.3,43.5v-8.6h-0.9v8.6H113.3L113.3,43.5z M112.8,33.1c0.4,0,0.7-0.3,0.7-0.7c0-0.4-0.3-0.8-0.7-0.8
		c-0.4,0-0.7,0.4-0.7,0.8C112.1,32.8,112.4,33.1,112.8,33.1L112.8,33.1L112.8,33.1z M119.6,43.7c2,0,4.2-1.4,4.2-4.6
		c0-2.6-1.7-4.4-4.1-4.4c-2.2,0-4.2,1.6-4.2,4.6C115.5,41.9,117.3,43.7,119.6,43.7L119.6,43.7L119.6,43.7z M119.6,42.9
		c-1.8,0-3.2-1.6-3.2-3.8c0-1.9,1-3.8,3.3-3.8c2.3,0,3.2,2.2,3.2,3.8C122.9,41.3,121.5,42.9,119.6,42.9L119.6,42.9L119.6,42.9z
		 M126,43.5h0.9v-5.4c0-0.3,0.1-0.6,0.1-0.8c0.4-1.1,1.4-2,2.7-2c1.8,0,2.5,1.4,2.5,3v5.1h0.9v-5.2c0-3.2-2.2-3.6-3.1-3.6
		c-1.4,0-2.6,0.8-3,1.7h0l-0.1-1.5H126c0.1,0.7,0.1,1.3,0.1,2.1V43.5L126,43.5z M141.4,38c0-1.5-0.5-3.4-3.1-3.4
		c-0.8,0-1.8,0.2-2.6,0.7L136,36c0.6-0.5,1.5-0.6,2.2-0.6c2.1,0,2.3,1.7,2.3,2.5v0.2c-3.6,0-5.4,1.2-5.4,3.2c0,1.2,0.8,2.4,2.6,2.4
		c1.4,0,2.4-0.8,2.8-1.4h0l0.1,1.2h0.8c-0.1-0.7-0.1-1.4-0.1-2.1V38L141.4,38z M140.5,40.7c0,0.1,0,0.3-0.1,0.5
		c-0.3,0.8-1.1,1.7-2.6,1.7c-0.9,0-1.8-0.6-1.8-1.8c0-2.1,2.5-2.4,4.5-2.3V40.7L140.5,40.7z M144.3,43.5h0.9V31.3h-0.9V43.5
		L144.3,43.5z"/>
</g>
</svg>
