<svg id="Layer_1" xmlns="http://www.w3.org/2000/svg" xmlns:xlink="http://www.w3.org/1999/xlink" viewBox="0 0 147.2 54.2"><style>.st0{fill:#FFF}.st1,.st2{clip-path:url(#SVGID_2_)}.st2{fill:url(#SVGID_5_)}</style><g id="The_Homogenizer_Company"><path class="st0" d="M56.1 47.3h-1.8V47h3.9v.3h-1.8v5.1H56v-5.1zM58.7 46.9h.4v2.3c.1-.2.3-.4.5-.6.2-.1.5-.2.8-.2.4 0 1.3.2 1.3 1.6v2.3h-.4V50c0-.7-.3-1.3-1.1-1.3-.5 0-1 .4-1.2.9v2.8h-.4v-5.5zM63.1 50.4c0 1.2.7 1.7 1.5 1.7.6 0 .9-.1 1.1-.2l.1.3c-.1.1-.5.2-1.2.2-1.1 0-1.8-.8-1.8-1.9 0-1.3.7-2.1 1.7-2.1 1.3 0 1.5 1.2 1.5 1.7v.2h-2.9zm2.5-.3c0-.5-.2-1.4-1.1-1.4-.9 0-1.2.8-1.3 1.4h2.4zM69.1 47v2.4h3V47h.4v5.4h-.4v-2.7h-3v2.7h-.4V47h.4zM75.2 52.5c-1 0-1.8-.8-1.8-2 0-1.3.9-2.1 1.8-2.1 1.1 0 1.8.8 1.8 2 .1 1.5-.9 2.1-1.8 2.1zm.1-.3c.8 0 1.4-.7 1.4-1.7 0-.7-.4-1.7-1.4-1.7-1 0-1.4.9-1.4 1.7 0 .9.6 1.7 1.4 1.7zM78.1 49.5v-.9h.4v.7c.2-.4.6-.8 1.3-.8.5 0 .9.4 1.1.8.1-.2.2-.4.4-.5.2-.2.5-.3.9-.3s1.3.2 1.3 1.7v2.3H83v-2.2c0-.9-.3-1.4-1-1.4-.5 0-.9.4-1 .8 0 .1-.1.2-.1.4v2.5h-.4V50c0-.7-.3-1.2-1-1.2-.5 0-.9.4-1.1.9 0 .1-.1.2-.1.4v2.4h-.4v-3zM86.1 52.5c-1 0-1.8-.8-1.8-2 0-1.3.9-2.1 1.8-2.1 1.1 0 1.8.8 1.8 2 .1 1.5-.9 2.1-1.8 2.1zm0-.3c.8 0 1.4-.7 1.4-1.7 0-.7-.4-1.7-1.4-1.7-1 0-1.4.9-1.4 1.7 0 .9.6 1.7 1.4 1.7zM92 51.8c0 1-.2 1.5-.5 1.8-.4.3-.9.5-1.3.5s-.9-.1-1.2-.3l.1-.3c.3.2.7.3 1.2.3.8 0 1.4-.4 1.4-1.6v-.5c-.2.4-.7.7-1.3.7-1 0-1.7-.8-1.7-1.9 0-1.3.9-2.1 1.7-2.1.8 0 1.1.4 1.3.7v-.7h.4v3.4zm-.4-1.8v-.4c-.2-.5-.6-.9-1.2-.9-.8 0-1.4.7-1.4 1.7 0 .9.5 1.6 1.4 1.6.5 0 1-.3 1.2-.9 0-.1.1-.3.1-.4V50zM93.4 50.4c0 1.2.7 1.7 1.5 1.7.6 0 .9-.1 1.1-.2l.1.3c-.1.1-.5.2-1.2.2-1.1 0-1.8-.8-1.8-1.9 0-1.3.7-2.1 1.7-2.1 1.3 0 1.5 1.2 1.5 1.7v.2h-2.9zm2.4-.3c0-.5-.2-1.4-1.1-1.4-.9 0-1.2.8-1.3 1.4h2.4zM97.2 49.5v-.9h.4v.7c.2-.4.7-.8 1.3-.8.4 0 1.4.2 1.4 1.6v2.3h-.4v-2.3c0-.7-.3-1.3-1.1-1.3-.5 0-1 .4-1.2.9V52.4h-.4v-2.9zM101.7 47.8c-.2 0-.3-.2-.3-.3 0-.2.1-.3.3-.3.2 0 .3.2.3.3 0 .1-.1.3-.3.3zm-.2 4.6v-3.9h.4v3.9h-.4zM102.7 52.2l2.1-2.7c.1-.2.3-.4.4-.6h-2.4v-.3h2.8v.3l-2.1 2.7c-.1.2-.3.4-.4.5h2.5v.3h-3v-.2zM106.5 50.4c0 1.2.7 1.7 1.5 1.7.6 0 .9-.1 1.1-.2l.1.3c-.1.1-.5.2-1.2.2-1.1 0-1.8-.8-1.8-1.9 0-1.3.7-2.1 1.7-2.1 1.3 0 1.5 1.2 1.5 1.7v.2h-2.9zm2.4-.3c0-.5-.2-1.4-1.1-1.4-.9 0-1.2.8-1.3 1.4h2.4zM110.3 49.7v-1.2h.4v.8c.2-.5.6-.9 1.1-.9h.2v.4h-.2c-.5 0-.9.5-1 1.1v2.5h-.4v-2.7zM118.1 52.2c-.3.1-.8.3-1.5.3-1.3 0-2.6-.8-2.6-2.8 0-1.6 1-2.8 2.8-2.8.7 0 1.1.2 1.3.2l-.1.3c-.3-.1-.7-.2-1.1-.2-1.5 0-2.4.9-2.4 2.5 0 1.5.8 2.4 2.3 2.4.5 0 .9-.1 1.2-.2l.1.3zM120.4 52.5c-1 0-1.8-.8-1.8-2 0-1.3.9-2.1 1.8-2.1 1.1 0 1.8.8 1.8 2 .1 1.5-.9 2.1-1.8 2.1zm.1-.3c.8 0 1.4-.7 1.4-1.7 0-.7-.4-1.7-1.4-1.7-1 0-1.4.9-1.4 1.7 0 .9.6 1.7 1.4 1.7zM123.3 49.5v-.9h.4v.7c.2-.4.6-.8 1.3-.8.5 0 .9.4 1.1.8.1-.2.2-.4.4-.5.2-.2.5-.3.9-.3s1.3.2 1.3 1.7v2.3h-.4v-2.2c0-.9-.3-1.4-1-1.4-.5 0-.9.4-1 .8 0 .1-.1.2-.1.4v2.5h-.4V50c0-.7-.3-1.2-1-1.2-.5 0-.9.4-1.1.9 0 .1-.1.2-.1.4v2.4h-.4v-3zM129.9 49.8v-1.2h.4v.7c.3-.5.8-.8 1.4-.8 1 0 1.7.8 1.7 2 0 1.4-.8 2.1-1.8 2.1-.6 0-1-.2-1.3-.7V54h-.4v-4.2zm.3 1.1v.3c.2.6.7 1 1.3 1 .9 0 1.4-.7 1.4-1.7 0-.9-.5-1.6-1.4-1.6-.6 0-1.1.4-1.3 1 0 .1-.1.2-.1.3v.7zM136.7 51.5c0 .3 0 .6.1.9h-.4l-.1-.6c-.2.3-.6.6-1.2.6-.8 0-1.1-.5-1.1-1.1 0-.9.8-1.4 2.4-1.4v-.1c0-.4-.1-1.1-1-1.1-.3 0-.7.1-1 .3l-.1-.3c.4-.2.8-.3 1.1-.3 1.1 0 1.3.8 1.3 1.5v1.6zm-.4-1.2c-.8 0-2 .1-2 1 0 .6.4.8.8.8.6 0 1-.4 1.1-.8v-1zM138 49.5v-.9h.4v.7c.2-.4.7-.8 1.3-.8.4 0 1.4.2 1.4 1.6v2.3h-.4v-2.3c0-.7-.3-1.3-1.1-1.3-.5 0-1 .4-1.2.9V52.4h-.4v-2.9zM142 48.5l1 2.5c.1.3.2.6.3.8.1-.2.2-.5.3-.9l.9-2.5h.4l-1.2 2.9c-.5 1.2-.8 1.9-1.3 2.4-.3.3-.6.4-.7.4l-.1-.3c.2-.1.4-.2.7-.4.2-.2.5-.5.6-1v-.2-.2l-1.4-3.6h.5zM146.3 47.1c.5 0 1 .4 1 1 0 .5-.4 1-1 1s-1-.4-1-1 .4-1 1-1zm0 .1c-.4 0-.8.4-.8.8s.3.8.8.8c.4 0 .8-.3.8-.8-.1-.4-.4-.8-.8-.8zm-.2 1.3h-.2v-1h.3c.2 0 .3 0 .3.1.1 0 .1.1.1.2s-.1.2-.2.2c.1 0 .1.1.2.2 0 .2.1.2.1.2h-.2s-.1-.1-.1-.3c0-.1-.1-.2-.2-.2h-.1v.6zm0-.5h.1c.1 0 .3 0 .3-.2 0-.1-.1-.2-.2-.2h-.1v.4z"/></g><g id="Logo"><path class="st0" d="M76.1 13.8c0 9.4-5.9 14.4-13 14.4-7.4 0-12.6-5.6-12.6-13.9 0-8.7 5.5-14.4 13-14.4 7.7.1 12.6 5.8 12.6 13.9zm-21.7.5c0 5.8 3.2 11.1 8.9 11.1s9-5.2 9-11.4c0-5.4-2.9-11.1-8.9-11.1s-9 5.4-9 11.4zM104.4 15.8c-.2-3.8-.4-8.4-.4-11.8h-.1c-1 3.2-2.1 6.6-3.5 10.4l-4.9 13.3h-2.7l-4.5-13c-1.3-3.9-2.5-7.4-3.2-10.6H85c-.1 3.4-.3 8-.5 12.1l-.7 11.7h-3.4l2-27.3H87l4.8 13.2c1.2 3.4 2.1 6.4 2.8 9.2h.1c.7-2.8 1.7-5.8 3-9.2l5-13.2h4.6l1.7 27.3h-3.5l-1.1-12.1zM114.2 27.8V.4h3.9l9 13.8c2.1 3.2 3.7 6.1 5 8.9h.1c-.3-3.6-.4-7-.4-11.2V.4h3.4v27.3h-3.7l-8.9-13.9c-2-3-3.8-6.2-5.2-9.1h-.1c.2 3.4.3 6.7.3 11.3v11.7h-3.4v.1zM145.2.4v27.4h-3.6V.4h3.6z"/><path id="International" class="st0" d="M54.4 31.3v12.1h.9V31.3h-.9zm4.1 12.2h.9v-5.4c0-.3.1-.6.1-.8.4-1.1 1.4-2 2.7-2 1.8 0 2.5 1.4 2.5 3v5.1h.9v-5.2c0-3.2-2.2-3.6-3.1-3.6-1.4 0-2.6.8-3 1.7l-.1-1.5h-.8c.1.7.1 1.3.1 2.1v6.6h-.2zm10.3-10.2v1.6h-1.5v.7h1.5V41c0 .9.1 1.6.6 2.1.3.4.9.6 1.5.6.5 0 .9-.1 1.2-.2l-.1-.6c-.2.1-.6.1-1 .1-.9 0-1.3-.7-1.3-1.8v-5.6h2.5v-.7h-2.5V33l-.9.3zm11.8 5.8v-.5c0-1.2-.6-3.9-3.4-3.9-2.3 0-4 1.8-4 4.7 0 2.5 1.6 4.3 4.1 4.3 1.5 0 2.5-.4 2.8-.6l-.1-.7c-.5.2-1.2.5-2.5.5-1.8 0-3.4-1.1-3.4-3.9h6.5v.1zm-6.4-.7c.2-1.3 1-3 2.9-3 2.1 0 2.7 1.8 2.6 3h-5.5zm8.7 5.1h.9v-4.8c0-.3 0-.6.1-.8.2-1.4 1.1-2.4 2.3-2.4h.4v-.8h-.4c-1.2 0-2.1.8-2.5 1.9h-.1v-1.7h-.8c.1.8.1 1.7.1 2.6v6zm5.6 0h.9v-5.4c0-.3.1-.6.1-.8.4-1.1 1.4-2 2.7-2 1.8 0 2.5 1.4 2.5 3v5.1h.9v-5.2c0-3.2-2.2-3.6-3.1-3.6-1.4 0-2.6.8-3 1.7l-.1-1.5h-.8c.1.7.1 1.3.1 2.1v6.6h-.2zm15.4-5.5c0-1.5-.5-3.4-3.1-3.4-.8 0-1.8.2-2.6.7l.3.6c.6-.5 1.5-.6 2.2-.6 2.1 0 2.3 1.7 2.3 2.5v.2c-3.6 0-5.4 1.2-5.4 3.2 0 1.2.8 2.4 2.6 2.4 1.4 0 2.4-.8 2.8-1.4l.1 1.2h.8c-.1-.7-.1-1.4-.1-2.1V38h.1zm-.9 2.7c0 .1 0 .3-.1.5-.3.8-1.1 1.7-2.6 1.7-.9 0-1.8-.6-1.8-1.8 0-2.1 2.5-2.4 4.5-2.3v1.9zm4.1-7.4v1.6h-1.5v.7h1.5V41c0 .9.1 1.6.6 2.1.3.4.9.6 1.5.6.5 0 .9-.1 1.2-.2l-.1-.6c-.2.1-.6.1-1 .1-.9 0-1.3-.7-1.3-1.8v-5.6h2.5v-.7H108V33l-.9.3zm6.2 10.2v-8.6h-.9v8.6h.9zm-.5-10.4c.4 0 .7-.3.7-.7 0-.4-.3-.8-.7-.8-.4 0-.7.4-.7.8s.3.7.7.7zm6.8 10.6c2 0 4.2-1.4 4.2-4.6 0-2.6-1.7-4.4-4.1-4.4-2.2 0-4.2 1.6-4.2 4.6 0 2.6 1.8 4.4 4.1 4.4zm0-.8c-1.8 0-3.2-1.6-3.2-3.8 0-1.9 1-3.8 3.3-3.8s3.2 2.2 3.2 3.8c0 2.2-1.4 3.8-3.3 3.8zm6.5.6h.9v-5.4c0-.3.1-.6.1-.8.4-1.1 1.4-2 2.7-2 1.8 0 2.5 1.4 2.5 3v5.1h.9v-5.2c0-3.2-2.2-3.6-3.1-3.6-1.4 0-2.6.8-3 1.7l-.1-1.5h-1c.1.7.1 1.3.1 2.1v6.6zm15.3-5.5c0-1.5-.5-3.4-3.1-3.4-.8 0-1.8.2-2.6.7l.3.6c.6-.5 1.5-.6 2.2-.6 2.1 0 2.3 1.7 2.3 2.5v.2c-3.6 0-5.4 1.2-5.4 3.2 0 1.2.8 2.4 2.6 2.4 1.4 0 2.4-.8 2.8-1.4l.1 1.2h.8c-.1-.7-.1-1.4-.1-2.1V38h.1zm-.8 2.7c0 .1 0 .3-.1.5-.3.8-1.1 1.7-2.6 1.7-.9 0-1.8-.6-1.8-1.8 0-2.1 2.5-2.4 4.5-2.3v1.9zm3.7 2.8h.9V31.3h-.9v12.2z"/></g><defs><path id="SVGID_1_" d="M24.6 23.9c.1.5.1.9.1 1.4 0 .5.1.9.3 1.4.5.9.7 1.8.9 2.8.2 1 .1 2 0 3.1-.3 1.4-.7 2.7-1.5 4-.9 1.3-2 2.3-3.4 3.1-1.7 1-3.6 1.8-5.4 2.6-.3.1-.6.2-.9.4.1 0 .1.1.2.1 1.7.6 3.4 1 5.2 1.2h.7c1.6-.4 3.2-1 4.8-1.6 1.6-.7 3.1-1.4 4.4-2.5 2.5-2 3.7-4.6 3.9-7.7 0-.1 0-.2-.1-.3-3.1-2.7-6.2-5.5-9.3-8.2l-.1-.1c0-.1.2.1.2.3M41.3 9.8c-1.3.1-2.5.3-3.7.7-3.3.9-5.7 2.9-7.1 5.9-.1.2 0 .2.1.3 1.1.9 2.1 1.7 3.2 2.6.4.3.6.7.6 1.3v10.8c0 .1 0 .3.1.4.4 1.2.6 2.5.5 3.8-.1 1.6-.6 3.1-1.4 4.5-.3.5-.6 1-1 1.5.1 0 .2-.1.2-.1 2.5-1.3 4.7-2.9 6.6-5 3.7-4.1 5.6-8.9 5.7-14.4v-.5c0-1.4-.2-2.7-.4-4.1-.5-2.7-1.6-5.2-3-7.5-.1-.1-.2-.2-.4-.2.1 0 0 0 0 0m-6.1-6.2c-.8.2-1.6.4-2.3.7-2.3.8-4.5 1.6-6.5 2.9-1.6.8-2.9 1.8-3.9 3.2-1 1.4-1.7 2.9-1.9 4.6-.2 1-.2 2 0 3 .1.7.3 1.4.4 2.1.1.3.1.6.2.9.1.2.2.4.2.7v3.8c0 2.2 0 4.4-.1 6.6 0 .1-.1.2-.1.3-.1 0-.2-.1-.3-.1-1.7-1.4-3.3-2.7-5-4.1-.1 0-.1-.1-.2-.1-.2 2.4-1.3 4.5-2.9 6.2-1.7 1.8-3.9 2.6-6.3 2.9 0 0 0 .1.1.1 1.2 1.2 2.4 2.2 3.8 3h.2c.5-.1 1-.3 1.5-.4 2.5-.8 5-1.8 7.2-3.1 1.4-.9 2.7-1.9 3.7-3.3s1.6-3 1.8-4.7c.1-.9.1-1.8 0-2.7-.1-.8-.3-1.6-.5-2.4-.1-.3-.1-.5-.2-.8-.1-.2-.2-.5-.2-.7v-3.7c0-2.1 0-4.2.1-6.3v-.5c0-.2.2-.2.3-.1l.1.1c1.7 1.4 3.4 2.8 5 4.1 0 0 .1.1.2.1 0-.3 0-.6.1-.9.6-2.8 2-5 4.4-6.6 1.2-.8 2.6-1.2 4.1-1.5.3-.1.6-.1.9-.2 0 0 0-.1-.1-.1-1.1-1.2-2.3-2.2-3.7-3.1.1.1 0 .1-.1.1M14 1.4s-.1 0-.1.1c-3.3 1.3-6.1 3.3-8.4 5.9C2.3 11 .5 15.2.1 19.8c0 0-.1.9-.1 2.1S.1 24 .1 24l.3 1.8c.6 3 1.7 5.8 3.5 8.3.1.1.1.1.3.1 1.4-.1 2.7-.3 4-.7 3.1-1 5.4-2.9 6.8-5.8.1-.1 0-.2-.1-.3l-3.3-2.7c-.4-.3-.5-.6-.5-1.1V12.7c0-.1 0-.3-.1-.4-.4-1.1-.6-2.1-.6-3.3 0-.9.2-1.8.4-2.7.5-1.8 1.3-3.3 2.7-4.6.2 0 .4-.2.5-.3.1 0 .1-.1 0 0 0-.1 0-.1 0 0M25.5.1c-1.1.3-2.3.6-3.4 1-1.8.6-3.5 1.3-5.1 2.3-1.7 1-3.2 2.3-4.2 4.1-.8 1.4-1.2 2.9-1.3 4.4 0 .4.1.6.4.9 2 1.7 3.9 3.4 5.9 5.2 1.1 1 2.2 2 3.3 2.9 0-.1-.1-.2-.2-.4 0-.1-.1-.2-.1-.3-.1-.6-.1-1.2-.2-1.8 0-.3-.1-.6-.2-.9-.5-.9-.8-1.8-1-2.8-.2-1.1-.1-2.1 0-3.2.3-1.6.8-3.1 1.8-4.4.8-1.1 1.9-1.9 3-2.6 1.7-1 3.5-1.8 5.3-2.5.5-.2 1-.4 1.6-.6-.1 0-.1-.1-.2-.1-1.5-.6-3-1-4.5-1.3h-.5s-.2 0-.4.1"/></defs><clipPath id="SVGID_2_"><use xlink:href="#SVGID_1_" overflow="visible"/></clipPath><g class="st1"><defs><path id="SVGID_3_" d="M.1 0h45v43.7H.1z"/></defs><clipPath id="SVGID_4_"/><g clip-path="url(#SVGID_4_)"><image width="100" height="95" xlink:href="9A6390363ED511AE.jpg" transform="matrix(.4844 0 0 -.4806 -1.143 44.927)" overflow="visible"/></g></g><radialGradient id="SVGID_5_" cx="22.56" cy="21.858" r="22.898" gradientUnits="userSpaceOnUse"><stop offset="0" stop-color="#58c9e7"/><stop offset=".11" stop-color="#58c4e4"/><stop offset=".241" stop-color="#53b9de"/><stop offset=".383" stop-color="#4ca9d5"/><stop offset=".532" stop-color="#4394c7"/><stop offset=".687" stop-color="#387ab7"/><stop offset=".845" stop-color="#2c5fa6"/><stop offset="1" stop-color="#233e95"/></radialGradient><circle class="st2" cx="22.6" cy="21.9" r="22.9"/></svg>