<svg id="Layer_1" xmlns="http://www.w3.org/2000/svg" xmlns:xlink="http://www.w3.org/1999/xlink" viewBox="0 0 492.6 477.3"><style>.st0,.st1{clip-path:url(#SVGID_2_)}.st1{fill:url(#SVGID_5_)}</style><defs><path id="SVGID_1_" d="M268.5 261.1c.8 5 1.1 10 1.6 15.1.5 5.2 1.2 10.1 3.8 15 5 9.5 8.1 19.7 9.9 30.3 1.9 11.2 1.5 22.4-.5 33.5-2.8 15.4-7.7 30-16.5 43.2-9.3 14.2-22.2 24.6-36.6 33.4-18.7 11.4-38.8 20-59.3 28-3.2 1.3-6.5 2.6-10.1 4 1 .4 1.5.6 2.1.8 18.5 6.6 37.6 10.8 57.2 12.9h7.7c17.8-4.9 35.2-10.7 52.2-17.9 17-7.2 33.5-15.4 47.8-27.1 26.9-21.9 40.9-50 42.2-84.2 0-1-.5-2.3-1.2-2.9-33.7-29.9-67.5-59.8-101.3-89.7-.5-.4-1-.8-1.5-1.1.9 2.2 2.1 4.4 2.5 6.7m182.6-153.7c-13.8 1.6-27.5 3.5-40.9 7.2-35.9 9.9-61.9 31.2-77.4 64.4-.8 1.6-.5 2.5.9 3.7 11.5 9.4 22.8 19 34.5 28.2 4.7 3.7 6.5 7.9 6.5 13.7-.1 39.3.1 78.6.2 118 0 1.5.3 3 .8 4.4 4.7 13.5 7.1 27.2 5.8 41.5-1.5 17.3-6.2 33.7-14.8 48.9-3.2 5.5-7 10.6-10.7 16.1.9-.4 1.7-.8 2.5-1.2 27.3-13.7 51.3-31.6 71.6-54.1 40.4-44.8 61-97.3 62.5-157v-5.6c0-14.9-1.7-29.8-4.7-44.5-6-29.2-17-56.4-33.2-81.6-.8-1.2-1.5-2.1-3-2.1-.2-.1-.4 0-.6 0m-67.2-68c-8.5 2.4-17 4.7-25.4 7.5-24.8 8.2-48.9 17.9-71.5 31.2-15.9 9.3-30.1 20.5-41.1 35.3-11.2 15.1-18 31.9-20.8 50.3-1.6 11-1.7 22 .1 32.9 1.4 7.8 3.1 15.6 4.6 23.3.7 3.3 1.6 6.6 2.3 10 .6 2.5 1.8 4.9 1.8 7.4 0 13.9-.2 27.9-.4 41.8-.3 23.9-.5 47.8-.9 71.7 0 1.2-.9 2.4-1.3 3.6-1.1-.4-2.3-.7-3.2-1.4-18.1-15-36.4-30-54.6-45-.6-.5-1.2-.9-2.1-1.6-2.2 26.7-14.2 48.7-32.1 67.8-18.4 19.7-42.6 27.8-68.8 31.9.3.5.4.8.7.9 12.7 12.6 26.7 23.8 42 33.2.6.4 1.7.5 2.4.3 5.4-1.5 10.8-3 16.1-4.7 27.5-8.9 54.3-19.4 79.1-34.3 15.7-9.4 29.6-21 40.2-35.8 10.9-15.3 17.3-32.3 19.7-50.8 1.3-9.8 1.3-19.7-.3-29.5-1.5-8.7-3.3-17.2-5.1-25.9-.6-2.8-1.4-5.7-2.1-8.5-.6-2.5-1.7-5.1-1.7-7.6 0-13.6.3-27.2.5-40.7.3-22.9.5-45.8.8-68.6 0-1.8 0-3.6.2-5.3.3-2.1 1.6-2.6 3.4-1.4.4.3.8.6 1.2 1 18.3 15 36.6 30.1 54.9 45.1.5.4 1.1.8 1.8 1.3.4-3.4.5-6.5 1.2-9.5 6.4-30.3 22.3-54.7 48.3-72.5 13.3-9.1 28.6-13.4 44.3-16.4 3-.6 6.1-1.1 9.3-1.7-.4-.5-.5-.8-.7-1-12-12.7-25.3-24-39.9-33.8-.5-.3-1.3-.5-2-.5h-.9M153.2 14.7c-.5.2-1 .4-1.4.6-35.6 14.6-66.2 35.9-91.4 64.6-34.8 39.5-54.3 84.8-59.2 135.3 0 0-1.2 9.7-1.2 23.4s1.2 23.2 1.2 23.2c.7 6.5 1.7 13.1 2.9 19.5 6.2 32.8 18.8 63.1 37.8 90.9.8 1.2 1.6 1.6 3 1.5 14.9-1.6 29.7-3.8 44-8.2 34.3-10.5 59-31.6 73.9-63.7.7-1.4.4-2.2-.8-3.2-11.9-9.7-23.7-19.5-35.7-29.1-4-3.2-5.6-7.1-5.6-12 0-39.6 0-79.2-.1-118.8 0-1.4-.3-2.8-.7-4.1-4.1-11.6-6.4-23.4-6.3-35.7.1-9.9 1.8-19.6 4.5-29.1 5.4-19.2 14.6-36.3 29.9-49.8 1.9-1.7 3.8-3.3 6-5.1h-.6c-.1-.2-.2-.2-.2-.2M278.8.8c-12.2 3.8-24.7 7-36.8 11-19.6 6.4-38.5 14.3-56.2 24.7-19 11.1-34.8 25.3-45.6 44.4-8.5 15-13.3 31.1-14.6 48.3-.3 4.2.9 6.7 4 9.5 21.4 18.7 42.7 37.6 64 56.5 12.1 10.7 24.3 21.5 36.4 32.2-.5-1.4-1.3-2.7-1.9-4-.4-.9-.9-1.8-1-2.8-.7-6.4-1.3-12.8-1.9-19.2-.3-3.4-1-6.7-2.7-9.8-5.1-9.8-8.6-20.1-10.5-31-2-11.7-1.6-23.3.5-35 3.2-17.5 9.2-33.8 20.2-48.1 8.9-11.6 20.4-20.5 32.9-28.1 18.4-11.1 38.1-19.6 58.1-27.5 5.5-2.2 11.1-4.3 17-6.5-.9-.4-1.5-.7-2-.9C322.8 8.2 306.4 3.7 289.6.6c-1.8-.3-3.5-.5-5.2-.5-2-.1-3.8.1-5.6.7"/></defs><clipPath id="SVGID_2_"><use xlink:href="#SVGID_1_" overflow="visible"/></clipPath><g class="st0"><defs><path id="SVGID_3_" d="M1.2 0h491.4v477.3H1.2z"/></defs><clipPath id="SVGID_4_"/><g clip-path="url(#SVGID_4_)"><image width="100" height="95" xlink:href="6348021729E2206A.jpg" transform="matrix(5.288 0 0 -5.247 -12.483 490.508)" overflow="visible"/></g></g><radialGradient id="SVGID_5_" cx="246.309" cy="238.646" r="250" gradientUnits="userSpaceOnUse"><stop offset="0" stop-color="#58c9e7"/><stop offset=".11" stop-color="#58c4e4"/><stop offset=".241" stop-color="#53b9de"/><stop offset=".383" stop-color="#4ca9d5"/><stop offset=".532" stop-color="#4394c7"/><stop offset=".687" stop-color="#387ab7"/><stop offset=".845" stop-color="#2c5fa6"/><stop offset="1" stop-color="#233e95"/></radialGradient><circle class="st1" cx="246.3" cy="238.6" r="250"/></svg>