<?xml version="1.0" encoding="utf-8"?>
<!-- Generator: Adobe Illustrator 21.1.0, SVG Export Plug-In . SVG Version: 6.00 Build 0)  -->
<svg version="1.1" id="Layer_1" xmlns="http://www.w3.org/2000/svg" xmlns:xlink="http://www.w3.org/1999/xlink" x="0px" y="0px"
	 viewBox="0 0 245 90.2" style="enable-background:new 0 0 245 90.2;" xml:space="preserve">
<style type="text/css">
	.st0{fill:#78777A;}
	.st1{clip-path:url(#SVGID_2_);}
	.st2{clip-path:url(#SVGID_4_);}
	.st3{clip-path:url(#SVGID_6_);fill:url(#SVGID_7_);}
</style>
<g id="The_Homogenizer_Company">
	<path class="st0" d="M93.3,78.7h-2.9v-0.5h6.5v0.5H94v8.5h-0.6L93.3,78.7L93.3,78.7z"/>
	<path class="st0" d="M97.8,78.1h0.6v3.8l0,0c0.2-0.4,0.5-0.7,0.9-0.9c0.4-0.2,0.8-0.4,1.3-0.4c0.6,0,2.2,0.3,2.2,2.7v3.9h-0.6v-3.8
		c0-1.2-0.5-2.2-1.8-2.2c-0.9,0-1.7,0.7-1.9,1.4c-0.1,0.2-0.1,0.4-0.1,0.6v3.9h-0.6V78.1z"/>
	<path class="st0" d="M105,83.9c0,2,1.1,2.9,2.4,2.9c0.9,0,1.4-0.2,1.8-0.4l0.2,0.5c-0.2,0.1-0.9,0.4-2,0.4c-1.8,0-3-1.3-3-3.2
		c0-2.1,1.2-3.5,2.9-3.5c2.1,0,2.5,2,2.5,2.9c0,0.2,0,0.3,0,0.4C109.8,83.9,105,83.9,105,83.9z M109.1,83.4c0-0.9-0.4-2.2-1.9-2.2
		c-1.4,0-2,1.3-2.1,2.2H109.1z"/>
	<path class="st0" d="M115,78.2v4h5v-4h0.6v9H120v-4.5h-5v4.5h-0.6v-9H115z"/>
	<path class="st0" d="M125.2,87.4c-1.7,0-2.9-1.3-2.9-3.3c0-2.2,1.4-3.4,3-3.4c1.8,0,3,1.3,3,3.3C128.3,86.3,126.6,87.4,125.2,87.4
		L125.2,87.4z M125.3,86.8c1.3,0,2.4-1.2,2.4-2.9c0-1.2-0.7-2.8-2.4-2.8c-1.6,0-2.4,1.5-2.4,2.8C122.9,85.6,123.9,86.8,125.3,86.8
		L125.3,86.8z"/>
	<path class="st0" d="M129.9,82.3c0-0.6,0-1-0.1-1.5h0.6v1.1l0,0c0.4-0.7,1-1.3,2.1-1.3c0.9,0,1.6,0.6,1.8,1.4l0,0
		c0.2-0.4,0.4-0.7,0.7-0.9c0.4-0.3,0.8-0.5,1.5-0.5c0.6,0,2.1,0.3,2.1,2.8v3.8h-0.5v-3.7c0-1.4-0.6-2.3-1.7-2.3
		c-0.8,0-1.4,0.6-1.7,1.3c-0.1,0.2-0.1,0.4-0.1,0.6v4.1H134v-4c0-1.2-0.5-2-1.6-2c-0.9,0-1.5,0.7-1.8,1.4c-0.1,0.2-0.1,0.4-0.1,0.6
		v4h-0.6L129.9,82.3L129.9,82.3z"/>
	<path class="st0" d="M143.3,87.4c-1.7,0-2.9-1.3-2.9-3.3c0-2.2,1.4-3.4,3-3.4c1.8,0,3,1.3,3,3.3C146.4,86.3,144.7,87.4,143.3,87.4
		L143.3,87.4z M143.3,86.8c1.3,0,2.4-1.2,2.4-2.9c0-1.2-0.7-2.8-2.4-2.8c-1.6,0-2.4,1.5-2.4,2.8C141,85.6,142,86.8,143.3,86.8
		L143.3,86.8z"/>
	<path class="st0" d="M153.1,86.3c0,1.6-0.3,2.5-0.9,3c-0.6,0.6-1.5,0.8-2.2,0.8s-1.6-0.2-2-0.6l0.2-0.5c0.5,0.3,1.1,0.5,1.9,0.5
		c1.4,0,2.3-0.7,2.3-2.6V86l0,0c-0.3,0.7-1.1,1.2-2.2,1.2c-1.6,0-2.8-1.4-2.8-3.2c0-2.2,1.5-3.4,2.9-3.4c1.3,0,1.9,0.7,2.2,1.2l0,0
		v-1.1h0.6c0,0.5-0.1,1-0.1,1.7v3.9H153.1z M152.5,83.3c0-0.2,0-0.4-0.1-0.6c-0.3-0.8-0.9-1.5-2-1.5c-1.4,0-2.3,1.1-2.3,2.8
		c0,1.4,0.8,2.7,2.3,2.7c0.9,0,1.7-0.5,2-1.4c0.1-0.2,0.1-0.5,0.1-0.7V83.3z"/>
	<path class="st0" d="M155.4,83.9c0,2,1.1,2.9,2.4,2.9c0.9,0,1.4-0.2,1.8-0.4l0.2,0.5c-0.2,0.1-0.9,0.4-2,0.4c-1.8,0-3-1.3-3-3.2
		c0-2.1,1.2-3.5,2.9-3.5c2.1,0,2.5,2,2.5,2.9c0,0.2,0,0.3,0,0.4C160.2,83.9,155.4,83.9,155.4,83.9z M159.5,83.4
		c0-0.9-0.4-2.2-1.9-2.2c-1.4,0-2,1.3-2.1,2.2H159.5z"/>
	<path class="st0" d="M161.8,82.3c0-0.6,0-1-0.1-1.5h0.6V82l0,0c0.3-0.7,1.2-1.3,2.2-1.3c0.6,0,2.2,0.3,2.2,2.7v3.9h-0.6v-3.8
		c0-1.2-0.5-2.2-1.8-2.2c-0.9,0-1.7,0.6-1.9,1.5c0,0.1-0.1,0.4-0.1,0.6v4h-0.6v-5.1H161.8z"/>
	<path class="st0" d="M169.3,79.5c-0.3,0-0.5-0.3-0.5-0.5c0-0.3,0.2-0.6,0.5-0.6s0.5,0.3,0.5,0.6C169.8,79.3,169.6,79.5,169.3,79.5
		L169.3,79.5z M169,87.2v-6.4h0.6v6.4H169z"/>
	<path class="st0" d="M170.9,86.8l3.5-4.6c0.2-0.3,0.5-0.6,0.7-0.9l0,0h-3.9v-0.5h4.7v0.4l-3.5,4.6c-0.2,0.3-0.4,0.6-0.7,0.9l0,0
		h4.2v0.5h-5V86.8z"/>
	<path class="st0" d="M177.2,83.9c0,2,1.1,2.9,2.4,2.9c0.9,0,1.4-0.2,1.8-0.4l0.2,0.5c-0.2,0.1-0.9,0.4-2,0.4c-1.8,0-3-1.3-3-3.2
		c0-2.1,1.2-3.5,2.9-3.5c2.1,0,2.5,2,2.5,2.9c0,0.2,0,0.3,0,0.4C182,83.9,177.2,83.9,177.2,83.9z M181.3,83.4c0-0.9-0.4-2.2-1.9-2.2
		c-1.4,0-2,1.3-2.1,2.2H181.3z"/>
	<path class="st0" d="M183.6,82.7c0-0.6,0-1.3-0.1-1.9h0.6v1.3l0,0c0.3-0.8,1-1.4,1.8-1.4c0.1,0,0.2,0,0.3,0v0.6c-0.1,0-0.2,0-0.3,0
		c-0.9,0-1.5,0.8-1.7,1.8c0,0.2-0.1,0.4-0.1,0.6v3.5h-0.6v-4.5H183.6z"/>
	<path class="st0" d="M196.6,86.9c-0.5,0.2-1.3,0.5-2.4,0.5c-2.2,0-4.3-1.4-4.3-4.6c0-2.7,1.7-4.7,4.6-4.7c1.2,0,1.8,0.3,2.1,0.4
		l-0.2,0.5c-0.5-0.2-1.1-0.4-1.9-0.4c-2.4,0-3.9,1.6-3.9,4.2c0,2.4,1.4,4,3.8,4c0.8,0,1.5-0.2,2-0.4L196.6,86.9z"/>
	<path class="st0" d="M200.4,87.4c-1.7,0-2.9-1.3-2.9-3.3c0-2.2,1.4-3.4,3-3.4c1.8,0,3,1.3,3,3.3C203.5,86.3,201.8,87.4,200.4,87.4
		L200.4,87.4z M200.5,86.8c1.3,0,2.4-1.2,2.4-2.9c0-1.2-0.7-2.8-2.4-2.8c-1.6,0-2.4,1.5-2.4,2.8C198.1,85.6,199.1,86.8,200.5,86.8
		L200.5,86.8z"/>
	<path class="st0" d="M205.1,82.3c0-0.6,0-1-0.1-1.5h0.6v1.1l0,0c0.4-0.7,1-1.3,2.1-1.3c0.9,0,1.6,0.6,1.8,1.4l0,0
		c0.2-0.4,0.4-0.7,0.7-0.9c0.4-0.3,0.8-0.5,1.5-0.5c0.6,0,2.1,0.3,2.1,2.8v3.8h-0.6v-3.7c0-1.4-0.6-2.3-1.7-2.3
		c-0.8,0-1.4,0.6-1.7,1.3c-0.1,0.2-0.1,0.4-0.1,0.6v4.1h-0.6v-4c0-1.2-0.5-2-1.6-2c-0.9,0-1.5,0.7-1.8,1.4c-0.1,0.2-0.1,0.4-0.1,0.6
		v4h-0.5V82.3z"/>
	<path class="st0" d="M216.1,82.8c0-0.8,0-1.4-0.1-2h0.6V82l0,0c0.5-0.8,1.3-1.4,2.4-1.4c1.6,0,2.8,1.4,2.8,3.3
		c0,2.3-1.4,3.5-2.9,3.5c-0.9,0-1.7-0.4-2.2-1.2l0,0v3.7h-0.6V82.8z M216.7,84.7c0,0.2,0,0.3,0.1,0.5c0.3,1,1.1,1.6,2.1,1.6
		c1.5,0,2.3-1.2,2.3-2.9c0-1.4-0.8-2.7-2.3-2.7c-0.9,0-1.8,0.6-2.1,1.7c0,0.2-0.1,0.4-0.1,0.5V84.7z"/>
	<path class="st0" d="M227.5,85.7c0,0.5,0,1,0.1,1.5H227l-0.1-0.9l0,0c-0.3,0.5-1,1.1-2.1,1.1c-1.3,0-1.9-0.9-1.9-1.8
		c0-1.5,1.3-2.4,3.9-2.4V83c0-0.6-0.1-1.9-1.6-1.9c-0.6,0-1.2,0.1-1.6,0.5l-0.2-0.5c0.6-0.4,1.3-0.5,1.9-0.5c1.9,0,2.2,1.4,2.2,2.5
		L227.5,85.7L227.5,85.7z M226.8,83.8c-1.4,0-3.3,0.2-3.3,1.7c0,0.9,0.6,1.3,1.3,1.3c1.1,0,1.7-0.7,1.9-1.3c0.1-0.1,0.1-0.3,0.1-0.4
		V83.8z"/>
	<path class="st0" d="M229.6,82.3c0-0.6,0-1-0.1-1.5h0.6V82l0,0c0.3-0.7,1.2-1.3,2.2-1.3c0.6,0,2.2,0.3,2.2,2.7v3.9h-0.6v-3.8
		c0-1.2-0.5-2.2-1.8-2.2c-0.9,0-1.7,0.6-1.9,1.5c0,0.1-0.1,0.4-0.1,0.6v4h-0.6v-5.1H229.6z"/>
	<path class="st0" d="M236.4,80.8l1.7,4.2c0.2,0.5,0.3,1,0.5,1.4l0,0c0.1-0.4,0.3-0.9,0.5-1.4l1.6-4.2h0.7l-1.9,4.8
		c-0.8,2-1.3,3.2-2.2,3.9c-0.5,0.4-1,0.6-1.1,0.7l-0.2-0.5c0.3-0.1,0.7-0.3,1.1-0.7c0.3-0.3,0.7-0.9,1.1-1.6
		c0.1-0.1,0.1-0.2,0.1-0.3c0-0.1,0-0.1-0.1-0.3l-2.4-6H236.4z"/>
	<path class="st0" d="M243.4,78.3c0.9,0,1.6,0.7,1.6,1.6s-0.7,1.6-1.6,1.6s-1.6-0.7-1.6-1.6S242.5,78.3,243.4,78.3L243.4,78.3z
		 M243.4,78.6c-0.7,0-1.3,0.6-1.3,1.3c0,0.7,0.5,1.3,1.3,1.3c0.7,0,1.2-0.6,1.2-1.3C244.7,79.2,244.1,78.6,243.4,78.6L243.4,78.6z
		 M243.1,80.8h-0.3v-1.7c0.2,0,0.3,0,0.6,0s0.4,0,0.5,0.1s0.2,0.2,0.2,0.4c0,0.2-0.1,0.3-0.3,0.4l0,0c0.1,0.1,0.2,0.2,0.3,0.4
		c0,0.3,0.1,0.3,0.1,0.4h-0.3c-0.1-0.1-0.1-0.2-0.1-0.4c0-0.2-0.1-0.3-0.4-0.3h-0.3V80.8z M243.1,79.9h0.2c0.2,0,0.4-0.1,0.4-0.3
		c0-0.2-0.1-0.3-0.4-0.3c-0.1,0-0.2,0-0.2,0V79.9z"/>
</g>
<g id="Logo">
	<path class="st0" d="M126.7,23.1c0,15.7-9.7,24-21.6,24c-12.4-0.1-21-9.4-21-23.2C84.1,9.5,93.3,0,105.7,0
		C118.5,0,126.7,9.6,126.7,23.1L126.7,23.1z M90.5,23.8c0,9.7,5.4,18.4,14.9,18.4s14.9-8.6,14.9-18.9c0-9-4.8-18.5-14.9-18.5
		C95.5,4.8,90.5,13.8,90.5,23.8L90.5,23.8z"/>
	<path class="st0" d="M173.8,26.3c-0.3-6.3-0.8-14-0.7-19.6h-0.2c-1.6,5.3-3.5,11-5.9,17.3l-8.2,22.1h-4.6l-7.5-21.8
		c-2.2-6.4-4.1-12.3-5.4-17.7h-0.2c-0.1,5.7-0.5,13.3-0.9,20.1L139,46.3h-5.7l3.2-45.5h7.7l7.9,22c1.9,5.6,3.5,10.6,4.7,15.3h0.2
		c1.2-4.6,2.8-9.6,4.9-15.3l8.3-22h7.7l2.9,45.5h-5.9L173.8,26.3L173.8,26.3z"/>
	<path class="st0" d="M190.1,46.3V0.8h6.6l14.9,23c3.5,5.3,6.2,10.1,8.4,14.8l0.1-0.1c-0.6-6.1-0.7-11.6-0.7-18.7v-19h5.7v45.5H219
		l-14.8-23.1c-3.2-5.1-6.4-10.3-8.7-15.2l-0.2,0.1c0.3,5.7,0.5,11.2,0.5,18.8v19.4H190.1L190.1,46.3z"/>
	<polygon class="st0" points="241.6,0.8 241.6,46.3 235.6,46.3 235.6,0.8 	"/>
	<path id="International" class="st0" d="M90.5,52.2v20.2H92V52.2H90.5L90.5,52.2z M97.4,72.4h1.5v-8.9c0-0.4,0.1-0.9,0.2-1.3
		c0.6-1.9,2.4-3.3,4.4-3.3c3,0,4.1,2.4,4.1,5v8.5h1.5v-8.6c0-5.4-3.7-6.1-5.1-6.1c-2.4,0-4.3,1.3-5.1,2.9h-0.1L98.7,58h-1.4
		c0.1,1.1,0.1,2.1,0.1,3.4V72.4L97.4,72.4z M114.4,55.4V58h-2.5v1.2h2.5v9.1c0,1.5,0.2,2.7,0.9,3.4c0.5,0.7,1.4,1,2.5,1
		c0.9,0,1.6-0.1,2.1-0.3l-0.2-1.1c-0.4,0.1-0.9,0.2-1.7,0.2c-1.6,0-2.1-1.1-2.1-3v-9.3h4.2V58h-4.2v-3.2L114.4,55.4L114.4,55.4z
		 M134.2,65c0.1-0.3,0.1-0.5,0.1-0.9c0-2.1-0.9-6.5-5.7-6.5c-3.8,0-6.6,3-6.6,7.8c0,4.2,2.6,7.2,6.9,7.2c2.6,0,4.1-0.6,4.6-0.9
		l-0.4-1.1c-0.8,0.4-1.9,0.8-4.1,0.8c-3,0-5.6-1.8-5.6-6.4H134.2L134.2,65z M123.4,63.9c0.3-2.2,1.7-5,4.9-5c3.6,0,4.4,3,4.4,5
		H123.4L123.4,63.9z M138,72.4h1.5v-7.9c0-0.5,0-1,0.1-1.4c0.4-2.3,1.8-4,3.9-4c0.3,0,0.5,0,0.7,0v-1.3c-0.2,0-0.4-0.1-0.6-0.1
		c-2,0-3.5,1.4-4.2,3.2h-0.1l-0.1-2.9h-1.3c0.1,1.4,0.1,2.9,0.1,4.3L138,72.4L138,72.4z M147.3,72.4h1.5v-8.9c0-0.4,0.1-0.9,0.2-1.3
		c0.6-1.9,2.4-3.3,4.4-3.3c3,0,4.1,2.4,4.1,5v8.5h1.5v-8.6c0-5.4-3.7-6.1-5.1-6.1c-2.4,0-4.3,1.3-5.1,2.9h-0.1l-0.1-2.6h-1.5
		c0.1,1.1,0.1,2.1,0.1,3.4L147.3,72.4L147.3,72.4z M172.9,63.3c0-2.5-0.8-5.7-5.1-5.7c-1.3,0-3,0.4-4.3,1.2l0.5,1
		c1.1-0.7,2.4-1.1,3.7-1.1c3.5,0,3.8,2.8,3.8,4.2v0.4c-6-0.1-9,1.9-9,5.3c0,1.9,1.3,3.9,4.3,3.9c2.4,0,4-1.3,4.7-2.4h0.1l0.2,2.1
		h1.3c-0.2-1.1-0.2-2.3-0.2-3.4V63.3L172.9,63.3z M171.4,67.7c0,0.2,0,0.6-0.2,0.9c-0.5,1.4-1.9,2.9-4.4,2.9c-1.5,0-2.9-0.9-2.9-3
		c0-3.4,4.2-3.9,7.5-3.8L171.4,67.7L171.4,67.7z M178.2,55.4V58h-2.5v1.2h2.5v9.1c0,1.5,0.2,2.7,0.9,3.4c0.5,0.7,1.4,1,2.5,1
		c0.9,0,1.6-0.1,2.1-0.3l-0.2-1.1c-0.4,0.1-0.9,0.2-1.7,0.2c-1.6,0-2.1-1.1-2.1-3v-9.3h4.2V58h-4.2v-3.2L178.2,55.4L178.2,55.4z
		 M188.5,72.4V58h-1.4v14.4H188.5L188.5,72.4z M187.8,55.1c0.7,0,1.2-0.6,1.2-1.2c0-0.7-0.5-1.3-1.2-1.3s-1.2,0.6-1.2,1.3
		S187.1,55.1,187.8,55.1L187.8,55.1L187.8,55.1z M199,72.7c3.2,0,7-2.3,7-7.6c0-4.4-2.8-7.4-6.8-7.4c-3.6,0-7,2.7-7,7.6
		C192.3,69.8,195.2,72.7,199,72.7L199,72.7L199,72.7z M199.1,71.5c-3,0-5.3-2.7-5.3-6.3c0-3.1,1.7-6.3,5.5-6.3
		c3.9,0,5.4,3.6,5.4,6.3C204.6,68.8,202.2,71.5,199.1,71.5L199.1,71.5L199.1,71.5z M209.8,72.4h1.5v-8.9c0-0.4,0.1-0.9,0.2-1.3
		c0.6-1.9,2.4-3.3,4.4-3.3c3,0,4.1,2.4,4.1,5v8.5h1.5v-8.6c0-5.4-3.7-6.1-5.1-6.1c-2.4,0-4.3,1.3-5.1,2.9h-0.2L211,58h-1.4
		c0.1,1.1,0.1,2.1,0.1,3.4L209.8,72.4L209.8,72.4z M235.4,63.3c0-2.5-0.8-5.7-5.1-5.7c-1.3,0-3,0.4-4.3,1.2l0.5,1
		c1.1-0.7,2.4-1.1,3.7-1.1c3.5,0,3.8,2.8,3.8,4.2v0.4c-6-0.1-9,1.9-9,5.3c0,1.9,1.3,3.9,4.3,3.9c2.4,0,4-1.3,4.7-2.4h0.1l0.2,2.1
		h1.3c-0.2-1.1-0.2-2.3-0.2-3.4V63.3L235.4,63.3z M233.9,67.7c0,0.2,0,0.6-0.2,0.9c-0.5,1.4-1.9,2.9-4.4,2.9c-1.5,0-2.9-0.9-2.9-3
		c0-3.4,4.2-3.9,7.5-3.8L233.9,67.7L233.9,67.7z M240.1,72.4h1.5V52.1h-1.5V72.4L240.1,72.4z"/>
</g>
<g>
	<g>
		<defs>
			<path id="SVGID_1_" d="M40.9,39.8c0.1,0.8,0.2,1.5,0.2,2.3c0.1,0.8,0.2,1.5,0.6,2.3c0.8,1.4,1.2,3,1.5,4.6
				c0.3,1.7,0.2,3.4-0.1,5.1c-0.4,2.3-1.2,4.6-2.5,6.6c-1.4,2.2-3.4,3.7-5.6,5.1c-2.9,1.7-5.9,3-9,4.3c-0.5,0.2-1,0.4-1.5,0.6
				c0.2,0.1,0.2,0.1,0.3,0.1c2.8,1,5.7,1.6,8.7,2h1.2c2.7-0.7,5.4-1.6,8-2.7s5.1-2.3,7.3-4.1c4.1-3.3,6.2-7.6,6.4-12.8
				c0-0.1-0.1-0.3-0.2-0.4c-5.1-4.6-10.3-9.1-15.4-13.7c-0.1-0.1-0.1-0.1-0.2-0.2C40.7,39.1,40.9,39.5,40.9,39.8 M68.8,16.4
				c-2.1,0.2-4.2,0.5-6.2,1.1c-5.5,1.5-9.5,4.7-11.9,9.8c-0.1,0.2-0.1,0.4,0.1,0.6c1.8,1.4,3.5,2.9,5.3,4.3c0.7,0.6,1,1.2,1,2.1
				c0,6,0,12,0,18c0,0.2,0,0.5,0.1,0.7c0.7,2.1,1.1,4.2,0.9,6.3c-0.2,2.6-0.9,5.1-2.3,7.5c-0.5,0.8-1.1,1.6-1.6,2.4
				c0.1-0.1,0.3-0.1,0.4-0.2c4.2-2.1,7.8-4.8,10.9-8.3c6.2-6.8,9.3-14.8,9.5-23.9c0-0.2,0-0.4,0-0.6V36c0-2.3-0.3-4.5-0.7-6.8
				c-0.9-4.4-2.6-8.6-5.1-12.4C69.2,16.5,69.1,16.4,68.8,16.4L68.8,16.4 M58.5,6c-1.3,0.4-2.6,0.7-3.9,1.1
				c-3.8,1.3-7.5,2.7-10.9,4.8c-2.4,1.4-4.6,3.1-6.3,5.4s-2.7,4.9-3.2,7.7c-0.2,1.7-0.3,3.3,0,5c0.2,1.2,0.5,2.4,0.7,3.6
				c0.1,0.5,0.2,1,0.4,1.5c0.1,0.4,0.3,0.7,0.3,1.1c0,2.1,0,4.2-0.1,6.4c0,3.6-0.1,7.3-0.1,10.9c0,0.2-0.1,0.4-0.2,0.5
				c-0.2-0.1-0.4-0.1-0.5-0.2c-2.8-2.3-5.6-4.6-8.4-6.8c-0.1-0.1-0.2-0.1-0.3-0.2c-0.3,4.1-2.2,7.4-4.9,10.3
				c-2.8,3-6.5,4.2-10.5,4.9c0.1,0.1,0.1,0.1,0.1,0.1c1.9,1.9,4.1,3.6,6.4,5.1c0.1,0.1,0.3,0.1,0.4,0c0.8-0.2,1.6-0.5,2.5-0.7
				c4.2-1.3,8.3-3,12.1-5.2c2.4-1.4,4.5-3.2,6.1-5.5c1.7-2.3,2.6-4.9,3-7.7c0.2-1.5,0.2-3-0.1-4.5c-0.2-1.3-0.5-2.6-0.8-3.9
				c-0.1-0.4-0.2-0.9-0.3-1.3c-0.1-0.4-0.3-0.8-0.3-1.2c0-2.1,0-4.1,0.1-6.2c0-3.5,0.1-7,0.1-10.5c0-0.3,0-0.5,0-0.8
				s0.2-0.4,0.5-0.2c0.1,0,0.1,0.1,0.2,0.1c2.8,2.3,5.6,4.6,8.4,6.9c0.1,0.1,0.2,0.1,0.3,0.2c0.1-0.5,0.1-1,0.2-1.4
				c1-4.6,3.4-8.3,7.4-11c2-1.4,4.4-2,6.8-2.5c0.5-0.1,0.9-0.2,1.4-0.3c0-0.2-0.1-0.2-0.1-0.2c-1.8-1.9-3.9-3.7-6.1-5.1
				c-0.1-0.1-0.2-0.1-0.3-0.1C58.6,6,58.6,6,58.5,6 M23.3,2.3c0,0-0.1,0-0.2,0.1C17.7,4.6,13,7.9,9.2,12.2c-5.3,6-8.3,12.9-9,20.6
				c0,0-0.2,1.5-0.2,3.6s0.2,3.5,0.2,3.5c0.1,1,0.3,2,0.4,3c0.9,5,2.9,9.6,5.8,13.8c0.1,0.2,0.2,0.2,0.5,0.2
				c2.3-0.2,4.5-0.6,6.7-1.2c5.2-1.6,9-4.8,11.3-9.7c0.1-0.2,0.1-0.3-0.1-0.5c-1.8-1.5-3.6-3-5.4-4.4c-0.6-0.5-0.9-1.1-0.9-1.8
				c0-6,0-12.1,0-18.1c0-0.2,0-0.4-0.1-0.6c-0.6-1.8-1-3.6-1-5.4c0-1.5,0.3-3,0.7-4.4c0.8-2.9,2.2-5.5,4.6-7.6
				c0.1-0.4,0.4-0.6,0.8-0.9C23.4,2.3,23.4,2.3,23.3,2.3C23.4,2.3,23.4,2.3,23.3,2.3 M42.5,0.1c-1.9,0.6-3.8,1.1-5.6,1.7
				c-3,1-5.9,2.2-8.6,3.8c-2.9,1.7-5.3,3.9-7,6.8c-1.3,2.3-2,4.7-2.2,7.4c0,0.6,0.1,1,0.6,1.4c3.3,2.9,6.5,5.7,9.8,8.6
				c1.9,1.6,3.7,3.3,5.5,4.9c-0.1-0.2-0.2-0.4-0.3-0.6c-0.1-0.1-0.1-0.3-0.1-0.4c-0.1-1-0.2-1.9-0.3-2.9c0-0.5-0.2-1-0.4-1.5
				c-0.8-1.5-1.3-3.1-1.6-4.7c-0.3-1.8-0.2-3.6,0.1-5.3c0.5-2.7,1.4-5.1,3.1-7.3c1.4-1.8,3.1-3.1,5-4.3c2.8-1.7,5.8-3,8.8-4.2
				c0.8-0.3,1.7-0.6,2.6-1c-0.1-0.2-0.2-0.2-0.3-0.3c-2.4-1-4.9-1.7-7.5-2.1c-0.3,0-0.5-0.1-0.8-0.1C43,0,42.8,0.1,42.5,0.1"/>
		</defs>
		<clipPath id="SVGID_2_">
			<use xlink:href="#SVGID_1_"  style="overflow:visible;"/>
		</clipPath>
		<g class="st1">
			<g>
				<defs>
					<rect id="SVGID_3_" x="0.2" y="0" width="74.9" height="72.7"/>
				</defs>
				<clipPath id="SVGID_4_">
					<use xlink:href="#SVGID_3_"  style="overflow:visible;"/>
				</clipPath>
				<g transform="matrix(1 0 0 1 0 0)" class="st2">
					
						<image style="overflow:visible;enable-background:new    ;" width="100" height="95" xlink:href="CE5A6A8E50051B76.jpg"  transform="matrix(0.806 0 0 -0.7997 -1.9 74.7902)">
					</image>
				</g>
			</g>
			<g>
				<defs>
					<path id="SVGID_5_" d="M40.9,39.8c0.1,0.8,0.2,1.5,0.2,2.3c0.1,0.8,0.2,1.5,0.6,2.3c0.8,1.4,1.2,3,1.5,4.6
						c0.3,1.7,0.2,3.4-0.1,5.1c-0.4,2.3-1.2,4.6-2.5,6.6c-1.4,2.2-3.4,3.7-5.6,5.1c-2.9,1.7-5.9,3-9,4.3c-0.5,0.2-1,0.4-1.5,0.6
						c0.2,0.1,0.2,0.1,0.3,0.1c2.8,1,5.7,1.6,8.7,2h1.2c2.7-0.7,5.4-1.6,8-2.7s5.1-2.3,7.3-4.1c4.1-3.3,6.2-7.6,6.4-12.8
						c0-0.1-0.1-0.3-0.2-0.4c-5.1-4.6-10.3-9.1-15.4-13.7c-0.1-0.1-0.1-0.1-0.2-0.2C40.7,39.1,40.9,39.5,40.9,39.8 M68.8,16.4
						c-2.1,0.2-4.2,0.5-6.2,1.1c-5.5,1.5-9.5,4.7-11.9,9.8c-0.1,0.2-0.1,0.4,0.1,0.6c1.8,1.4,3.5,2.9,5.3,4.3c0.7,0.6,1,1.2,1,2.1
						c0,6,0,12,0,18c0,0.2,0,0.5,0.1,0.7c0.7,2.1,1.1,4.2,0.9,6.3c-0.2,2.6-0.9,5.1-2.3,7.5c-0.5,0.8-1.1,1.6-1.6,2.4
						c0.1-0.1,0.3-0.1,0.4-0.2c4.2-2.1,7.8-4.8,10.9-8.3c6.2-6.8,9.3-14.8,9.5-23.9c0-0.2,0-0.4,0-0.6V36c0-2.3-0.3-4.5-0.7-6.8
						c-0.9-4.4-2.6-8.6-5.1-12.4C69.2,16.5,69.1,16.4,68.8,16.4L68.8,16.4 M58.5,6c-1.3,0.4-2.6,0.7-3.9,1.1
						c-3.8,1.3-7.5,2.7-10.9,4.8c-2.4,1.4-4.6,3.1-6.3,5.4s-2.7,4.9-3.2,7.7c-0.2,1.7-0.3,3.3,0,5c0.2,1.2,0.5,2.4,0.7,3.6
						c0.1,0.5,0.2,1,0.4,1.5c0.1,0.4,0.3,0.7,0.3,1.1c0,2.1,0,4.2-0.1,6.4c0,3.6-0.1,7.3-0.1,10.9c0,0.2-0.1,0.4-0.2,0.5
						c-0.2-0.1-0.4-0.1-0.5-0.2c-2.8-2.3-5.6-4.6-8.4-6.8c-0.1-0.1-0.2-0.1-0.3-0.2c-0.3,4.1-2.2,7.4-4.9,10.3
						c-2.8,3-6.5,4.2-10.5,4.9c0.1,0.1,0.1,0.1,0.1,0.1c1.9,1.9,4.1,3.6,6.4,5.1c0.1,0.1,0.3,0.1,0.4,0c0.8-0.2,1.6-0.5,2.5-0.7
						c4.2-1.3,8.3-3,12.1-5.2c2.4-1.4,4.5-3.2,6.1-5.5c1.7-2.3,2.6-4.9,3-7.7c0.2-1.5,0.2-3-0.1-4.5c-0.2-1.3-0.5-2.6-0.8-3.9
						c-0.1-0.4-0.2-0.9-0.3-1.3c-0.1-0.4-0.3-0.8-0.3-1.2c0-2.1,0-4.1,0.1-6.2c0-3.5,0.1-7,0.1-10.5c0-0.3,0-0.5,0-0.8
						s0.2-0.4,0.5-0.2c0.1,0,0.1,0.1,0.2,0.1c2.8,2.3,5.6,4.6,8.4,6.9c0.1,0.1,0.2,0.1,0.3,0.2c0.1-0.5,0.1-1,0.2-1.4
						c1-4.6,3.4-8.3,7.4-11c2-1.4,4.4-2,6.8-2.5c0.5-0.1,0.9-0.2,1.4-0.3c0-0.2-0.1-0.2-0.1-0.2c-1.8-1.9-3.9-3.7-6.1-5.1
						c-0.1-0.1-0.2-0.1-0.3-0.1C58.6,6,58.6,6,58.5,6 M23.3,2.3c0,0-0.1,0-0.2,0.1C17.7,4.6,13,7.9,9.2,12.2c-5.3,6-8.3,12.9-9,20.6
						c0,0-0.2,1.5-0.2,3.6s0.2,3.5,0.2,3.5c0.1,1,0.3,2,0.4,3c0.9,5,2.9,9.6,5.8,13.8c0.1,0.2,0.2,0.2,0.5,0.2
						c2.3-0.2,4.5-0.6,6.7-1.2c5.2-1.6,9-4.8,11.3-9.7c0.1-0.2,0.1-0.3-0.1-0.5c-1.8-1.5-3.6-3-5.4-4.4c-0.6-0.5-0.9-1.1-0.9-1.8
						c0-6,0-12.1,0-18.1c0-0.2,0-0.4-0.1-0.6c-0.6-1.8-1-3.6-1-5.4c0-1.5,0.3-3,0.7-4.4c0.8-2.9,2.2-5.5,4.6-7.6
						c0.1-0.4,0.4-0.6,0.8-0.9C23.4,2.3,23.4,2.3,23.3,2.3C23.4,2.3,23.4,2.3,23.3,2.3 M42.5,0.1c-1.9,0.6-3.8,1.1-5.6,1.7
						c-3,1-5.9,2.2-8.6,3.8c-2.9,1.7-5.3,3.9-7,6.8c-1.3,2.3-2,4.7-2.2,7.4c0,0.6,0.1,1,0.6,1.4c3.3,2.9,6.5,5.7,9.8,8.6
						c1.9,1.6,3.7,3.3,5.5,4.9c-0.1-0.2-0.2-0.4-0.3-0.6c-0.1-0.1-0.1-0.3-0.1-0.4c-0.1-1-0.2-1.9-0.3-2.9c0-0.5-0.2-1-0.4-1.5
						c-0.8-1.5-1.3-3.1-1.6-4.7c-0.3-1.8-0.2-3.6,0.1-5.3c0.5-2.7,1.4-5.1,3.1-7.3c1.4-1.8,3.1-3.1,5-4.3c2.8-1.7,5.8-3,8.8-4.2
						c0.8-0.3,1.7-0.6,2.6-1c-0.1-0.2-0.2-0.2-0.3-0.3c-2.4-1-4.9-1.7-7.5-2.1c-0.3,0-0.5-0.1-0.8-0.1C43,0,42.8,0.1,42.5,0.1"/>
				</defs>
				<clipPath id="SVGID_6_">
					<use xlink:href="#SVGID_5_"  style="overflow:visible;"/>
				</clipPath>
				
					<radialGradient id="SVGID_7_" cx="37.5" cy="54.2" r="38.1" gradientTransform="matrix(1 0 0 -1 0 90.6)" gradientUnits="userSpaceOnUse">
					<stop  offset="0" style="stop-color:#58C9E7"/>
					<stop  offset="0.11" style="stop-color:#58C4E4"/>
					<stop  offset="0.2409" style="stop-color:#53B9DE"/>
					<stop  offset="0.3825" style="stop-color:#4CA9D5"/>
					<stop  offset="0.5317" style="stop-color:#4394C7"/>
					<stop  offset="0.6869" style="stop-color:#387AB7"/>
					<stop  offset="0.8445" style="stop-color:#2C5FA6"/>
					<stop  offset="1" style="stop-color:#233E95"/>
				</radialGradient>
				<circle class="st3" cx="37.5" cy="36.4" r="38.1"/>
			</g>
		</g>
	</g>
</g>
</svg>
