<svg xmlns="http://www.w3.org/2000/svg" viewBox="0 0 62.3 83.1"><style>.st0{fill:#77777a}.st1{fill:#FFF}.st2{display:none}</style><g id="Layer_1"><path class="st0" d="M0 0v83.1h62.3V20.8H41.5V0H0zm45 .2l16.9 17H45V.2z"/><path class="st1" d="M23.3 43.9H22c-2.9 0-5.3-.6-7-1.9-1.7-1.3-2.6-3-2.6-5.2 0-2.1.8-4 2.4-5.5 1.6-1.5 3.6-2.3 6-2.3 2.8 0 5 .9 6.6 2.6 1.6 1.7 2.4 4.1 2.4 7.1 0 4.2-1.3 8.5-3.8 12.7-2.5 4.3-5.8 7.8-10 10.5l-1.6-1c2.6-2.4 4.5-5 6-7.7 1.4-2.6 2.4-5.8 2.9-9.3zm21.5 0h-1.3c-2.9 0-5.2-.6-6.8-1.9-1.7-1.3-2.5-3-2.5-5.2 0-2.1.8-4 2.4-5.5 1.6-1.5 3.6-2.3 6-2.3 2.8 0 4.9.9 6.5 2.6 1.5 1.7 2.3 4.1 2.3 7.2 0 4.3-1.2 8.5-3.7 12.8-2.5 4.3-5.8 7.8-9.9 10.4l-1.6-1c2.5-2.3 4.5-4.9 5.8-7.6 1.4-2.7 2.3-5.9 2.8-9.5z"/></g></svg>