<svg xmlns="http://www.w3.org/2000/svg" viewBox="0 0 62.3 83.1"><style>.st0{fill:#77777a}.st1{display:none}</style><path class="st0" d="M0 0v83.1h62.3V20.8H41.5V0H0zm10.4 20.8h24.2v1.7H10.4v-1.7zm0 27.7h17.3v1.7H10.4v-1.7zm0 6.9h17.3v1.7H10.4v-1.7zm0 6.9h17.3V64H10.4v-1.7zM51.9 71H10.4v-1.7h41.5V71zM38.2 55.8c-.7 0-1.3-.1-1.7-.2-.4-.2-.8-.4-1.1-.7-.3-.3-.5-.6-.6-.9-.1-.3-.2-.7-.2-1 0-.7.3-1.4.9-1.9.6-.6 1.3-.8 2.1-.8 1.3 0 2.2.4 2.9 1.3.7.8 1 2 1 3.5 0 1.4-.6 2.8-1.8 4.2-1.2 1.4-2.6 2.5-4.2 3.2l-.7-1.5c1.3-.6 2.3-1.4 3.1-2.2.7-.8 1.2-1.9 1.3-3h-1zm8.6 0c-.7 0-1.3-.1-1.7-.2-.4-.2-.8-.4-1.1-.7-.3-.3-.5-.6-.6-.9-.1-.3-.2-.7-.2-1 0-.7.3-1.4.9-1.9.6-.6 1.3-.8 2.1-.8 1.3 0 2.2.4 2.9 1.3.7.8 1 2 1 3.5 0 1.4-.6 2.8-1.8 4.2-1.2 1.4-2.6 2.5-4.2 3.2l-.6-1.5c1.3-.6 2.3-1.4 3.1-2.2.7-.8 1.2-1.9 1.3-3h-1.1zm5.1-12.5H10.4v-1.7h41.5v1.7zm0-7H10.4v-1.7h41.5v1.7zm0-8.6v1.7H10.4v-1.7h41.5zM45 2.4l14.9 14.9H45V2.4z" id="Layer_1"/></svg>