<?xml version="1.0" encoding="utf-8"?>
<!-- Generator: Adobe Illustrator 21.1.0, SVG Export Plug-In . SVG Version: 6.00 Build 0)  -->
<svg version="1.1" id="Layer_1" xmlns="http://www.w3.org/2000/svg" xmlns:xlink="http://www.w3.org/1999/xlink" x="0px" y="0px"
	 viewBox="0 0 100 91.4" style="enable-background:new 0 0 100 91.4;" xml:space="preserve">
<path d="M100,61.3c-4.7-1.7-25.8-2.4-36,1.7c3.4-2,20.1-15.9,27.5-38.3c-4.3,2-26.1,14-33.7,28.8c0,0,6.9-23-7.9-53.5
	C35,30.4,42,53.5,42,53.5C34.4,38.7,12.6,26.7,8.3,24.7C15.8,47.1,32.4,61,36,63.1c-10-4.3-31.1-3.4-36-1.7
	c10.6,8.2,31,12.3,35.9,12.1c-5.3,1.7-19.7,8.3-20.8,11.8c16.8,1.1,29.4-6.7,33.6-9.8V90c0,0.7,0.7,1.4,1.4,1.4s1.4-0.6,1.4-1.4
	V75.5c4,3,16.8,10.9,33.6,9.8c-1.1-3.4-15.5-10-20.9-11.9C68.9,73.6,89.4,69.4,100,61.3z"/>
</svg>
