<?xml version="1.0" encoding="utf-8"?>
<!-- Generator: Adobe Illustrator 21.1.0, SVG Export Plug-In . SVG Version: 6.00 Build 0)  -->
<svg version="1.1" id="Layer_1" xmlns="http://www.w3.org/2000/svg" xmlns:xlink="http://www.w3.org/1999/xlink" x="0px" y="0px"
	 viewBox="0 0 89.1 70.3" style="enable-background:new 0 0 89.1 70.3;" xml:space="preserve">
<title>137all</title>
<path d="M31.2,56.5c-3.8,0-6.9,3.1-6.9,6.9s3.1,6.9,6.9,6.9s6.9-3.1,6.9-6.9S35.1,56.5,31.2,56.5z"/>
<path d="M67.5,56.5c-3.8,0-6.9,3.1-6.9,6.9s3.1,6.9,6.9,6.9c3.8,0,6.9-3.1,6.9-6.9S71.3,56.5,67.5,56.5z"/>
<polygon points="17.4,0 0,0 0,6 12.3,6 21.6,60.4 76.5,60.4 76.5,54.4 26.7,54.4 25.6,48.1 79.1,48.1 89.1,12.5 19.5,12.5 "/>
</svg>
