<?xml version="1.0" encoding="utf-8"?>
<!-- Generator: Adobe Illustrator 21.1.0, SVG Export Plug-In . SVG Version: 6.00 Build 0)  -->
<svg version="1.1" id="Layer_1" xmlns="http://www.w3.org/2000/svg" xmlns:xlink="http://www.w3.org/1999/xlink" x="0px" y="0px"
	 viewBox="0 0 98.1 95.4" style="enable-background:new 0 0 98.1 95.4;" xml:space="preserve">
<title>Artboard 27</title>
<path d="M98,58c0.2,3.5-1.1,7-3.6,9.5L77.1,84.9v10.5H52.9L53,82c0-6.5,2.6-12.8,7.2-17.4L75,49.8c2-1.9,5.1-1.9,7.1,0
	c0.1,0.1,0.2,0.2,0.3,0.3c1.6,2.1,1.4,5-0.5,6.8l-7.1,7.1c-0.6,0.6-0.6,1.7,0,2.3c0.1,0.1,0.1,0.1,0.2,0.2c0.7,0.5,1.6,0.4,2.2-0.2
	l8.2-8.2c1.2-1.2,1.8-2.8,1.7-4.5l-1.3-19c-0.2-2.9,2-5.3,4.8-5.5c2.9-0.2,5.3,2,5.5,4.8L98,58z M37.8,64.6L23,49.8
	c-2-1.9-5.1-1.9-7.1,0c-0.1,0.1-0.2,0.2-0.3,0.3c-1.6,2.1-1.4,5,0.5,6.8l7.1,7.1c0.6,0.6,0.6,1.7,0,2.3c-0.1,0.1-0.1,0.1-0.2,0.2
	c-0.7,0.5-1.6,0.4-2.2-0.2l-8.2-8.2c-1.2-1.2-1.8-2.8-1.7-4.5l1.3-19c0.2-2.9-2-5.3-4.8-5.5s-5.3,2-5.5,4.8c0,0,0,0,0,0L0,58
	c-0.2,3.5,1.1,7,3.6,9.5l17.3,17.3v10.5h24.2L45,82C45,75.5,42.4,69.2,37.8,64.6z M66.6,46.7c6.9-6.9,8.9-20.4-16.3-46.2
	c-0.7-0.7-1.9-0.7-2.6,0c0,0,0,0,0,0l0,0C15.2,33.9,28,46.6,38.1,51.2c0.9-6.7,3.1-13.2,6.5-19l0.1-0.1c0.2-0.2,0.4-0.2,0.6,0
	c0.1,0.1,0.1,0.2,0.1,0.3v27.8c0,2,1.5,3.7,3.5,3.9c2,0.1,3.8-1.4,3.9-3.5c0-0.1,0-0.1,0-0.2v-6.9C54.8,53.1,61.8,51.5,66.6,46.7z"
	/>
</svg>
