<?xml version="1.0" encoding="utf-8"?>
<!-- Generator: Adobe Illustrator 22.0.1, SVG Export Plug-In . SVG Version: 6.00 Build 0)  -->
<svg version="1.1" id="Layer_1" xmlns="http://www.w3.org/2000/svg" xmlns:xlink="http://www.w3.org/1999/xlink" x="0px" y="0px"
	 viewBox="0 0 25 15" style="enable-background:new 0 0 25 15;" xml:space="preserve">
<style type="text/css">
	.st0{fill:#FFFFFF;}
</style>
<path class="st0" d="M23.8,2.5H1.2C0.6,2.5,0,1.9,0,1.2S0.6,0,1.2,0h22.5C24.4,0,25,0.6,25,1.2S24.4,2.5,23.8,2.5z M5,6.2h15
	c0.7,0,1.2,0.6,1.2,1.2S20.7,8.7,20,8.7H5c-0.7,0-1.2-0.6-1.2-1.2C3.7,6.8,4.3,6.2,5,6.2z M8.8,12.5h7.5c0.7,0,1.2,0.6,1.2,1.2
	c0,0.7-0.6,1.2-1.2,1.2H8.8c-0.7,0-1.2-0.6-1.2-1.2C7.5,13,8.1,12.5,8.8,12.5z"/>
</svg>
