<?xml version="1.0" encoding="utf-8"?>
<!-- Generator: Adobe Illustrator 21.1.0, SVG Export Plug-In . SVG Version: 6.00 Build 0)  -->
<svg version="1.1" id="Layer_1" xmlns="http://www.w3.org/2000/svg" xmlns:xlink="http://www.w3.org/1999/xlink" x="0px" y="0px"
	 viewBox="0 0 83.4 83.4" style="enable-background:new 0 0 83.4 83.4;" xml:space="preserve">
<path d="M82.6,19.6L65.9,37.7c0,0,0,0-0.1,0.1c-2.8,2.7-6.4,4.1-10,4.1c-2.2,0-4.3-0.5-6.3-1.5L35.2,54.7l1.1,1.1L10.4,81.6
	c0,0,0,0,0,0c-1,1-2.4,1.6-3.7,1.8c-0.2,0-0.4,0-0.6,0c-0.1,0-0.2,0-0.3,0c-0.6,0-1.2-0.1-1.7-0.3c-0.1,0-0.2-0.1-0.3-0.1
	c-0.7-0.3-1.4-0.7-2-1.3s-1-1.3-1.3-2c0-0.1-0.1-0.2-0.1-0.3C0.1,78.7,0,78.1,0,77.5c0-0.3,0-0.6,0-0.9c0.1-1.4,0.7-2.7,1.8-3.7
	c0,0,0,0,0,0l25.8-25.8l1.1,1.1l14.3-14.3c-2.6-5.3-1.7-12,2.7-16.4l0,0L63.8,0.8C64.3,0.2,65,0,65.5,0c0.5,0,1,0.2,1.2,0.4l-19,19
	l0,0l19-19c0.4,0.4,0.8,1.8-0.3,2.9L49.7,21.4l4.1,4.1L71.9,8.9c0.6-0.6,1.2-0.8,1.7-0.8c0.5,0,1,0.2,1.2,0.4l-19,19l0,0l19-19
	c0.4,0.4,0.8,1.8-0.3,2.9L57.8,29.6l4.1,4.1L80,17c0.6-0.6,1.2-0.8,1.7-0.8c0.5,0,1,0.2,1.2,0.4l-19,19l0,0l19-19
	C83.4,17.1,83.7,18.5,82.6,19.6z M53.3,47.1l-1.1,1.1l-2.9-2.9l-6.5,6.5l2.9,2.9l-1.1,1.1l25.8,25.8c2.4,2.4,6.3,2.4,8.6,0
	c2.4-2.4,2.4-6.3,0-8.6L53.3,47.1z M28.6,43.5l9.5-9.5l-2.9-2.9L16.6,12.5c-1.9-1.9-7.3-6.1-9.7-4c0,0,0,0,0,0
	c-4.1,4.1,1.5,16.2,12.3,27.1C22.3,38.7,25.5,41.3,28.6,43.5z"/>
</svg>
