<?xml version="1.0" encoding="utf-8"?>
<!-- Generator: Adobe Illustrator 21.1.0, SVG Export Plug-In . SVG Version: 6.00 Build 0)  -->
<svg version="1.1"
	 id="Layer_1" xmlns:cc="http://creativecommons.org/ns#" xmlns:dc="http://purl.org/dc/elements/1.1/" xmlns:inkscape="http://www.inkscape.org/namespaces/inkscape" xmlns:rdf="http://www.w3.org/1999/02/22-rdf-syntax-ns#" xmlns:sodipodi="http://sodipodi.sourceforge.net/DTD/sodipodi-0.dtd" xmlns:svg="http://www.w3.org/2000/svg"
	 xmlns="http://www.w3.org/2000/svg" xmlns:xlink="http://www.w3.org/1999/xlink" x="0px" y="0px" viewBox="0 0 31 31"
	 style="enable-background:new 0 0 31 31;" xml:space="preserve">
<g transform="translate(0,-1020.3622)">
	<path d="M11.8,1020.4c-6.5,0-11.8,5.3-11.8,11.8s5.3,11.8,11.8,11.8l0,0c6.5,0,11.8-5.3,11.8-11.8l0,0
		C23.5,1025.6,18.2,1020.4,11.8,1020.4z M11.8,1022.6c5.2,0,9.5,4.3,9.5,9.5s-4.3,9.5-9.5,9.5s-9.5-4.3-9.5-9.5
		C2.2,1026.9,6.5,1022.6,11.8,1022.6z"/>
	<path d="M21.3,1040.6c-0.3,0.4-0.7,0.7-1.1,1.1l2.6,2.6l-0.8,0.8l6.3,6.3l2.7-2.7l-6.3-6.3l-0.8,0.8L21.3,1040.6z"/>
	<path d="M15,1025.4c-0.3,0-0.5,0.2-0.5,0.5c0,0.2,0.1,0.4,0.3,0.4c2.8,1.5,4.2,4.8,3.1,7.9c-0.1,0.3,0,0.5,0.3,0.7
		c0.3,0.1,0.5,0,0.7-0.3c0,0,0,0,0-0.1c1.2-3.5-0.3-7.4-3.6-9.1C15.2,1025.4,15.1,1025.4,15,1025.4L15,1025.4z"/>
	<path d="M11.4,1024.6c-1.9,0.1-3.8,0.9-5.1,2.4c-1.8,1.9-2.4,4.7-1.7,7.2c0.1,0.3,0.3,0.4,0.6,0.4c0.3-0.1,0.4-0.3,0.4-0.6
		c0,0,0,0,0,0c-0.6-2.2-0.1-4.6,1.5-6.3c1.6-1.7,3.9-2.4,6.1-1.9c0.3,0.1,0.5-0.1,0.6-0.4s-0.1-0.5-0.4-0.6c0,0,0,0,0,0
		C12.7,1024.6,12,1024.6,11.4,1024.6z"/>
	<path d="M12.6,1026.5c-1.1-0.2-2.3,0-3.3,0.5c-2.1,1.1-3.4,3.3-3.1,6.1c0.3,2.5-0.2,4.5-0.2,4.5c-0.1,0.3,0.1,0.5,0.4,0.6
		c0.3,0.1,0.5-0.1,0.6-0.4c0,0,0.5-2.2,0.2-4.8c-0.3-2.4,0.8-4.2,2.6-5.1c1.7-0.9,3.8-0.6,5.3,0.8c0.7,0.6,0.9,1.5,1,2.6
		c0.1,1,0,2.2,0,3.1c0,1.2,0.5,3.4,0.5,3.4c0,0.3,0.3,0.5,0.6,0.4s0.5-0.3,0.4-0.6c0,0,0,0,0,0c0,0-0.5-2.2-0.5-3.2
		c0-0.9,0.1-2.1,0-3.2c-0.1-1.2-0.4-2.3-1.3-3.2C14.8,1027.2,13.7,1026.7,12.6,1026.5L12.6,1026.5z"/>
	<path d="M9.4,1029.3c-0.1,0-0.3,0.1-0.3,0.1c-0.9,0.9-1.2,2.1-1.2,3.3c0,1.2,0.1,2.5,0.1,3.6c0,1-0.5,2.7-0.5,2.7
		c-0.1,0.3,0.1,0.5,0.3,0.6s0.5-0.1,0.6-0.3c0,0,0,0,0,0c0,0,0.5-1.7,0.5-2.9c0-1.2-0.2-2.5-0.1-3.6c0-1.1,0.3-2,0.9-2.6
		c0.2-0.2,0.2-0.5,0-0.7C9.7,1029.3,9.6,1029.3,9.4,1029.3z"/>
	<path d="M13.1,1028.8c-0.3,0-0.5,0.2-0.5,0.5c0,0.1,0.1,0.3,0.2,0.4c0.7,0.6,0.9,1.5,1,2.5c0.1,1,0,2.1,0,3.2v3.3
		c0,0.3,0.2,0.5,0.5,0.5c0.3,0,0.5-0.2,0.5-0.5v-3.3c0-1,0.1-2.2,0-3.3c-0.1-1.1-0.4-2.2-1.3-3.1
		C13.4,1028.9,13.3,1028.8,13.1,1028.8L13.1,1028.8z"/>
	<path d="M11.6,1030.8c-0.3-0.1-0.7,0-1,0.1c-0.9,0.3-1.3,1.3-1.2,2.2c0,0.3,0.3,0.5,0.5,0.5c0.3,0,0.5-0.3,0.5-0.5c0,0,0,0,0,0
		c-0.1-0.5,0.2-1,0.6-1.2c0.2-0.1,0.4-0.1,0.5-0.1c0.1,0,0.3,0.1,0.4,0.2c0.1,0.1,0.2,0.3,0.2,0.6c0,0.3,0,0.7,0,1l0.1,5
		c0,0.3,0.2,0.5,0.5,0.5c0.3,0,0.5-0.2,0.5-0.5c0,0,0,0,0,0l-0.1-5c0-0.3,0-0.7,0-1.1c0-0.4-0.1-0.9-0.5-1.2
		C12.3,1031,11.9,1030.8,11.6,1030.8L11.6,1030.8z"/>
	<path d="M10.2,1034.2c-0.3,0-0.5,0.3-0.5,0.5c0,0,0,0,0,0c0.2,1.3,0.3,2.3,0,3.5c-0.1,0.3,0.1,0.5,0.3,0.6c0.3,0.1,0.5-0.1,0.6-0.3
		c0,0,0,0,0,0c0.4-1.4,0.2-2.7,0-3.9C10.7,1034.3,10.5,1034.2,10.2,1034.2L10.2,1034.2z"/>
</g>
</svg>
