<?xml version="1.0" encoding="utf-8"?>
<!-- Generator: Adobe Illustrator 21.1.0, SVG Export Plug-In . SVG Version: 6.00 Build 0)  -->
<svg version="1.1" id="Layer_1" xmlns="http://www.w3.org/2000/svg" xmlns:xlink="http://www.w3.org/1999/xlink" x="0px" y="0px"
	 viewBox="0 0 305.7 276" style="enable-background:new 0 0 305.7 276;" xml:space="preserve">
<g>
	<path d="M110.9,14l136,99c13,9,22,22,26,36c59,36,33,128-36,127h-169c-80,0-94-115-17-135l-21-16C-44.1,72,37.9-39,110.9,14z
		 M250.9,140c-4-5-8-10-13-14l-137-99c-55-40-117,45-61,85l36,26l55,1l39-55l65,46c3,3,6,6,9,9C245.9,139,247.9,140,250.9,140z
		 M142.9,163h-74c-32,0-52,34-37,62c-3-25,17-47,42-47h69V163z M156.9,255h80c62,0,62-95,0-95h-79L156.9,255z M162.9,249h74
		c32,0,51-34,36-62c3,25-16,47-41,47h-69V249z M67.9,260c-68-1-68-105,1-105h168c69,0,68,105,0,105H67.9z M156.9,77l-60-43
		c-26-19-62-2-66,29c12-22,41-29,61-14l56,41L156.9,77z"/>
</g>
</svg>
