<?xml version="1.0" encoding="utf-8"?>
<!-- Generator: Adobe Illustrator 22.0.1, SVG Export Plug-In . SVG Version: 6.00 Build 0)  -->
<svg version="1.1" xmlns="http://www.w3.org/2000/svg" xmlns:xlink="http://www.w3.org/1999/xlink" x="0px" y="0px"
	 viewBox="0 0 81.8 81.8" style="enable-background:new 0 0 81.8 81.8;" xml:space="preserve">
<style type="text/css">
	.st0{fill:#FFFFFF;stroke:#000000;stroke-miterlimit:10;}
</style>
<g id="Layer_2">
	<ellipse class="st0" cx="43" cy="38.5" rx="30" ry="35.5"/>
</g>
<g id="Layer_1">
	<path d="M40.9,0C18.3,0,0,18.3,0,40.9s18.3,40.9,40.9,40.9s40.9-18.3,40.9-40.9S63.5,0,40.9,0z M61.9,43.7c-0.3,0.3-0.7,0.5-1,0.6
		L32.8,60.6c-0.4,0.4-0.9,0.6-1.4,0.8c-0.3,0.1-0.7,0.2-1.1,0.2c-2,0-3.7-1.6-3.7-3.7v-34c0-2,1.7-3.7,3.7-3.7
		c0.5,0,0.9,0.1,1.4,0.3c0.3,0.1,0.6,0.3,0.9,0.5l28.7,16.6l0.4,0.2c1,0.7,1.6,1.8,1.6,3.1C63.3,42,62.7,43.1,61.9,43.7z"/>
</g>
</svg>
