<?xml version="1.0" encoding="utf-8"?>
<!-- Generator: Adobe Illustrator 21.1.0, SVG Export Plug-In . SVG Version: 6.00 Build 0)  -->
<svg version="1.1" id="Layer_1" xmlns="http://www.w3.org/2000/svg" xmlns:xlink="http://www.w3.org/1999/xlink" x="0px" y="0px"
	 viewBox="0 0 100 125" style="enable-background:new 0 0 100 125;" xml:space="preserve">
<path d="M50,9.1C27.4,9.1,9.1,27.4,9.1,50c0,22.6,18.3,40.9,40.9,40.9S90.9,72.6,90.9,50C90.9,27.4,72.6,9.1,50,9.1z M71,52.8
	c-0.3,0.3-0.7,0.5-1,0.6L41.9,69.7c-0.4,0.4-0.9,0.6-1.4,0.8c-0.3,0.1-0.7,0.2-1.1,0.2c-2,0-3.7-1.6-3.7-3.7V33c0-2,1.7-3.7,3.7-3.7
	c0.5,0,0.9,0.1,1.4,0.3c0.3,0.1,0.6,0.3,0.9,0.5l28.7,16.6l0.4,0.2c1,0.7,1.6,1.8,1.6,3.1C72.4,51.1,71.8,52.2,71,52.8z"/>
</svg>
