<?xml version="1.0" encoding="utf-8"?>
<!-- Generator: Adobe Illustrator 21.1.0, SVG Export Plug-In . SVG Version: 6.00 Build 0)  -->
<svg version="1.1" xmlns="http://www.w3.org/2000/svg" xmlns:xlink="http://www.w3.org/1999/xlink" x="0px" y="0px"
	 viewBox="0 0 65.6 69.1" style="enable-background:new 0 0 65.6 69.1;" xml:space="preserve">
<style type="text/css">
	.st0{fill:#FFFFFF;}
</style>
<g id="Layer_2">
	<path d="M12,69.1h41.6c6.6,0,12-5.4,12-12V12c0-6.6-5.4-12-12-12H12C5.4,0,0,5.4,0,12v45.1C0,63.7,5.4,69.1,12,69.1z"/>
</g>
<g id="Layer_1">
	<title>137all</title>
	<g>
		<path class="st0" d="M51,49.5c0,3.7-0.7,7.2-1.9,10.5c7.1-5.7,11.7-13.9,11.8-22.9l0.1-0.2V15.1H37.6v28.1h12.7
			C50.8,45.3,51,47.4,51,49.5z"/>
		<path class="st0" d="M17.4,43.2c0.5,2.1,0.7,4.2,0.7,6.4c0,3.6-0.7,7.2-1.9,10.4c7.2-5.8,11.8-14,11.8-23.2h0v-0.1
			c0,0,0-0.1,0-0.1s0-0.1,0-0.1V15.1H4.5v28L17.4,43.2L17.4,43.2z"/>
	</g>
</g>
</svg>
