<?xml version="1.0" encoding="utf-8"?>
<!-- Generator: Adobe Illustrator 22.0.1, SVG Export Plug-In . SVG Version: 6.00 Build 0)  -->
<svg version="1.1" xmlns="http://www.w3.org/2000/svg" xmlns:xlink="http://www.w3.org/1999/xlink" x="0px" y="0px"
	 viewBox="0 0 45.1 43.7" style="enable-background:new 0 0 45.1 43.7;" xml:space="preserve">
<style type="text/css">
	.st0{display:none;clip-path:url(#SVGID_2_);}
	.st1{display:inline;}
	.st2{display:none;clip-path:url(#SVGID_2_);fill:#787878;}
	.st3{display:none;fill:#787878;}
	.st4{display:none;}
</style>
<g id="Omni_Logo_1_">
	<g id="Logo">
		<g>
			<defs>
				<path id="SVGID_1_" d="M24.4,24c0.1,0.4,0.1,0.9,0.1,1.4c0,0.5,0.1,0.9,0.3,1.3c0.5,0.9,0.7,1.8,0.9,2.7c0.2,1,0.1,2,0,3
					c-0.3,1.4-0.7,2.7-1.5,3.9c-0.8,1.3-2,2.2-3.3,3c-1.7,1-3.5,1.8-5.3,2.5c-0.3,0.1-0.6,0.2-0.9,0.4c0.1,0,0.1,0.1,0.2,0.1
					c1.7,0.6,3.4,1,5.1,1.2h0.7c1.6-0.4,3.2-1,4.7-1.6c1.5-0.7,3-1.4,4.3-2.4c2.4-2,3.7-4.5,3.8-7.6c0-0.1,0-0.2-0.1-0.3
					c-3-2.7-6.1-5.4-9.1-8.1c0,0-0.1-0.1-0.1-0.1C24.3,23.6,24.4,23.8,24.4,24 M40.9,10.1c-1.2,0.1-2.5,0.3-3.7,0.7
					c-3.2,0.9-5.6,2.8-7,5.8c-0.1,0.1,0,0.2,0.1,0.3c1,0.8,2.1,1.7,3.1,2.5c0.4,0.3,0.6,0.7,0.6,1.2c0,3.5,0,7.1,0,10.6
					c0,0.1,0,0.3,0.1,0.4c0.4,1.2,0.6,2.5,0.5,3.7c-0.1,1.6-0.6,3-1.3,4.4c-0.3,0.5-0.6,1-1,1.4c0.1,0,0.2-0.1,0.2-0.1
					c2.5-1.2,4.6-2.8,6.4-4.9c3.6-4,5.5-8.8,5.6-14.1c0-0.1,0-0.2,0-0.4v-0.1c0-1.3-0.2-2.7-0.4-4c-0.5-2.6-1.5-5.1-3-7.3
					C41.1,10.2,41.1,10.1,40.9,10.1C40.9,10.1,40.9,10.1,40.9,10.1 M34.8,4c-0.8,0.2-1.5,0.4-2.3,0.7c-2.2,0.7-4.4,1.6-6.4,2.8
					c-1.4,0.8-2.7,1.8-3.7,3.2c-1,1.4-1.6,2.9-1.9,4.5c-0.1,1-0.2,2,0,3c0.1,0.7,0.3,1.4,0.4,2.1c0.1,0.3,0.1,0.6,0.2,0.9
					c0.1,0.2,0.2,0.4,0.2,0.7c0,1.3,0,2.5,0,3.8c0,2.2,0,4.3-0.1,6.5c0,0.1-0.1,0.2-0.1,0.3c-0.1,0-0.2-0.1-0.3-0.1
					c-1.6-1.3-3.3-2.7-4.9-4c-0.1,0-0.1-0.1-0.2-0.1c-0.2,2.4-1.3,4.4-2.9,6.1C11.1,35.9,9,36.7,6.6,37c0,0,0,0.1,0.1,0.1
					c1.1,1.1,2.4,2.1,3.8,3c0.1,0,0.2,0,0.2,0c0.5-0.1,1-0.3,1.5-0.4c2.5-0.8,4.9-1.7,7.1-3.1c1.4-0.9,2.7-1.9,3.6-3.2
					c1-1.4,1.6-2.9,1.8-4.6c0.1-0.9,0.1-1.8,0-2.7c-0.1-0.8-0.3-1.6-0.5-2.3c-0.1-0.3-0.1-0.5-0.2-0.8c-0.1-0.2-0.2-0.5-0.2-0.7
					c0-1.2,0-2.4,0-3.7c0-2.1,0-4.1,0.1-6.2c0-0.2,0-0.3,0-0.5c0-0.2,0.1-0.2,0.3-0.1c0,0,0.1,0.1,0.1,0.1c1.6,1.4,3.3,2.7,4.9,4.1
					c0,0,0.1,0.1,0.2,0.1c0-0.3,0-0.6,0.1-0.9c0.6-2.7,2-4.9,4.4-6.5c1.2-0.8,2.6-1.2,4-1.5c0.3-0.1,0.5-0.1,0.8-0.1
					c0,0,0-0.1-0.1-0.1c-1.1-1.1-2.3-2.2-3.6-3C35,4,35,4,34.8,4C34.9,4,34.9,4,34.8,4 M14.1,1.8c0,0-0.1,0-0.1,0.1
					c-3.2,1.3-6,3.2-8.2,5.8c-3.1,3.6-4.9,7.6-5.3,12.2c0,0-0.1,0.9-0.1,2.1S0.4,24,0.4,24c0.1,0.6,0.2,1.2,0.3,1.8
					c0.6,3,1.7,5.7,3.4,8.2c0.1,0.1,0.1,0.1,0.3,0.1c1.3-0.1,2.7-0.3,4-0.7c3.1-0.9,5.3-2.8,6.7-5.7c0.1-0.1,0-0.2-0.1-0.3
					c-1.1-0.9-2.1-1.8-3.2-2.6c-0.4-0.3-0.5-0.6-0.5-1.1c0-3.6,0-7.1,0-10.7c0-0.1,0-0.3-0.1-0.4c-0.4-1-0.6-2.1-0.6-3.2
					c0-0.9,0.2-1.8,0.4-2.6c0.5-1.7,1.3-3.3,2.7-4.5C13.8,2.1,13.9,2,14.1,1.8C14.1,1.8,14.1,1.8,14.1,1.8
					C14.1,1.8,14.1,1.8,14.1,1.8 M25.4,0.5c-1.1,0.3-2.2,0.6-3.3,1c-1.8,0.6-3.5,1.3-5.1,2.2c-1.7,1-3.1,2.3-4.1,4
					c-0.8,1.4-1.2,2.8-1.3,4.3c0,0.4,0.1,0.6,0.4,0.9c1.9,1.7,3.8,3.4,5.8,5.1c1.1,1,2.2,1.9,3.3,2.9c0-0.1-0.1-0.2-0.2-0.4
					c0-0.1-0.1-0.2-0.1-0.3c-0.1-0.6-0.1-1.2-0.2-1.7c0-0.3-0.1-0.6-0.2-0.9c-0.5-0.9-0.8-1.8-0.9-2.8c-0.2-1-0.1-2.1,0-3.2
					c0.3-1.6,0.8-3,1.8-4.3c0.8-1,1.8-1.8,3-2.5c1.7-1,3.4-1.8,5.2-2.5c0.5-0.2,1-0.4,1.5-0.6c-0.1,0-0.1-0.1-0.2-0.1
					c-1.4-0.6-2.9-1-4.4-1.2c-0.2,0-0.3,0-0.5,0C25.7,0.5,25.5,0.5,25.4,0.5"/>
			</defs>
			<use xlink:href="#SVGID_1_"  style="overflow:visible;fill:#787878;"/>
			<clipPath id="SVGID_2_">
				<use xlink:href="#SVGID_1_"  style="overflow:visible;"/>
			</clipPath>
			<g class="st0">
				<defs>
					<rect id="SVGID_3_" x="0.4" y="0.5" width="44.3" height="43"/>
				</defs>
				<use xlink:href="#SVGID_3_"  style="overflow:visible;fill:#787878;"/>
				<clipPath id="SVGID_4_" class="st1">
					<use xlink:href="#SVGID_3_"  style="display:none;overflow:visible;"/>
				</clipPath>
				<g transform="matrix(1 0 0 1 0 0)" style="display:inline;clip-path:url(#SVGID_4_);">
					
						<image style="overflow:visible;" width="100" height="95" xlink:href="78AB108557093640.jpg"  transform="matrix(0.4762 0 0 -0.4725 -0.857 44.6421)">
					</image>
				</g>
			</g>
			<ellipse class="st2" cx="22.4" cy="21.9" rx="22.2" ry="22"/>
		</g>
		<path id="International" class="st3" d="M53.8,31.3v11.9h0.9V31.3H53.8L53.8,31.3z M57.9,43.3h0.9V38c0-0.3,0.1-0.5,0.1-0.7
			c0.3-1.1,1.4-2,2.6-2c1.8,0,2.4,1.4,2.4,3v5h0.9v-5.1c0-3.2-2.2-3.6-3-3.6c-1.4,0-2.5,0.8-3,1.7h0l-0.1-1.5h-0.8
			c0.1,0.7,0.1,1.3,0.1,2V43.3L57.9,43.3z M67.9,33.2v1.6h-1.5v0.7h1.5v5.4c0,0.9,0.1,1.6,0.5,2c0.3,0.4,0.9,0.6,1.5,0.6
			c0.5,0,0.9-0.1,1.2-0.2l-0.1-0.6c-0.2,0.1-0.5,0.1-1,0.1c-0.9,0-1.3-0.7-1.3-1.8v-5.5h2.5v-0.7h-2.5v-1.9L67.9,33.2L67.9,33.2z
			 M79.6,38.9c0-0.2,0-0.3,0-0.5c0-1.2-0.5-3.8-3.4-3.8c-2.2,0-3.9,1.8-3.9,4.6c0,2.5,1.6,4.3,4.1,4.3c1.5,0,2.4-0.4,2.7-0.5
			l-0.2-0.7c-0.5,0.2-1.1,0.5-2.4,0.5c-1.8,0-3.3-1.1-3.3-3.8H79.6L79.6,38.9z M73.3,38.2c0.2-1.3,1-3,2.9-3c2.1,0,2.6,1.8,2.6,3
			H73.3L73.3,38.2z M81.9,43.3h0.9v-4.7c0-0.3,0-0.6,0.1-0.8c0.2-1.4,1.1-2.4,2.3-2.4c0.2,0,0.3,0,0.4,0v-0.8c-0.1,0-0.2,0-0.4,0
			c-1.2,0-2.1,0.8-2.5,1.9h-0.1l0-1.7h-0.8c0.1,0.8,0.1,1.7,0.1,2.5V43.3L81.9,43.3z M87.4,43.3h0.9V38c0-0.3,0.1-0.5,0.1-0.7
			c0.3-1.1,1.4-2,2.6-2c1.8,0,2.4,1.4,2.4,3v5h0.9v-5.1c0-3.2-2.2-3.6-3-3.6c-1.4,0-2.5,0.8-3,1.7h0l-0.1-1.5h-0.8
			c0.1,0.7,0.1,1.3,0.1,2V43.3L87.4,43.3z M102.5,37.9c0-1.5-0.5-3.3-3-3.3c-0.8,0-1.8,0.2-2.6,0.7l0.3,0.6c0.6-0.4,1.4-0.6,2.2-0.6
			c2.1,0,2.2,1.7,2.2,2.5V38c-3.6,0-5.3,1.1-5.3,3.1c0,1.1,0.8,2.3,2.6,2.3c1.4,0,2.4-0.8,2.8-1.4h0l0.1,1.2h0.8
			c-0.1-0.7-0.1-1.3-0.1-2V37.9L102.5,37.9z M101.6,40.5c0,0.1,0,0.3-0.1,0.5c-0.3,0.8-1.1,1.7-2.6,1.7c-0.9,0-1.7-0.5-1.7-1.8
			c0-2,2.5-2.3,4.4-2.3V40.5L101.6,40.5z M105.6,33.2v1.6h-1.5v0.7h1.5v5.4c0,0.9,0.1,1.6,0.5,2c0.3,0.4,0.9,0.6,1.5,0.6
			c0.5,0,0.9-0.1,1.2-0.2l-0.1-0.6c-0.2,0.1-0.5,0.1-1,0.1c-0.9,0-1.3-0.7-1.3-1.8v-5.5h2.5v-0.7h-2.5v-1.9L105.6,33.2L105.6,33.2z
			 M111.8,43.3v-8.5h-0.9v8.5H111.8L111.8,43.3z M111.3,33.1c0.4,0,0.7-0.3,0.7-0.7c0-0.4-0.3-0.7-0.7-0.7c-0.4,0-0.7,0.4-0.7,0.7
			C110.6,32.7,110.9,33.1,111.3,33.1L111.3,33.1L111.3,33.1z M118,43.5c1.9,0,4.2-1.4,4.2-4.5c0-2.6-1.6-4.4-4-4.4
			c-2.2,0-4.1,1.6-4.1,4.5C114,41.7,115.7,43.5,118,43.5L118,43.5L118,43.5z M118,42.7c-1.8,0-3.2-1.6-3.2-3.7c0-1.8,1-3.8,3.2-3.8
			c2.3,0,3.2,2.1,3.2,3.7C121.3,41.2,119.8,42.7,118,42.7L118,42.7L118,42.7z M124.3,43.3h0.9V38c0-0.3,0.1-0.5,0.1-0.7
			c0.3-1.1,1.4-2,2.6-2c1.8,0,2.4,1.4,2.4,3v5h0.9v-5.1c0-3.2-2.2-3.6-3-3.6c-1.4,0-2.5,0.8-3,1.7h0l-0.1-1.5h-0.8
			c0.1,0.7,0.1,1.3,0.1,2V43.3L124.3,43.3z M139.5,37.9c0-1.5-0.5-3.3-3-3.3c-0.8,0-1.8,0.2-2.6,0.7l0.3,0.6
			c0.6-0.4,1.4-0.6,2.2-0.6c2.1,0,2.2,1.7,2.2,2.5V38c-3.6,0-5.3,1.1-5.3,3.1c0,1.1,0.8,2.3,2.6,2.3c1.4,0,2.4-0.8,2.8-1.4h0
			l0.1,1.2h0.8c-0.1-0.7-0.1-1.3-0.1-2V37.9L139.5,37.9z M138.6,40.5c0,0.1,0,0.3-0.1,0.5c-0.3,0.8-1.1,1.7-2.6,1.7
			c-0.9,0-1.7-0.5-1.7-1.8c0-2,2.5-2.3,4.4-2.3V40.5L138.6,40.5z M142.3,43.3h0.9v-12h-0.9V43.3L142.3,43.3z"/>
	</g>
</g>
<g id="GUIDES" class="st4">
</g>
</svg>
